<?xml version="1.0" encoding="utf-8" standalone="no"?>
<!DOCTYPE svg PUBLIC "-//W3C//DTD SVG 1.1//EN"
  "http://www.w3.org/Graphics/SVG/1.1/DTD/svg11.dtd">
<svg xmlns:xlink="http://www.w3.org/1999/xlink" width="1029.96pt" height="347.04pt" viewBox="0 0 1029.96 347.04" xmlns="http://www.w3.org/2000/svg" version="1.1">
 <metadata>
  <rdf:RDF xmlns:dc="http://purl.org/dc/elements/1.1/" xmlns:cc="http://creativecommons.org/ns#" xmlns:rdf="http://www.w3.org/1999/02/22-rdf-syntax-ns#">
   <cc:Work>
    <dc:type rdf:resource="http://purl.org/dc/dcmitype/StillImage"/>
    <dc:date>2026-06-01T19:52:31.542925</dc:date>
    <dc:format>image/svg+xml</dc:format>
    <dc:creator>
     <cc:Agent>
      <dc:title>Matplotlib v3.10.8, https://matplotlib.org/</dc:title>
     </cc:Agent>
    </dc:creator>
   </cc:Work>
  </rdf:RDF>
 </metadata>
 <defs>
  <style type="text/css">*{stroke-linejoin: round; stroke-linecap: butt}</style>
 </defs>
 <g id="figure_1">
  <g id="patch_1">
   <path d="M 0 347.04 
L 1029.96 347.04 
L 1029.96 -0 
L 0 -0 
z
" style="fill: #ffffff"/>
  </g>
  <g id="axes_1">
   <g id="patch_2">
    <path d="M 27.1206 121.84992 
L 101.6694 121.84992 
Q 103.0644 121.84992 103.0644 120.46392 
L 103.0644 81.32328 
Q 103.0644 79.93728 101.6694 79.93728 
L 27.1206 79.93728 
Q 25.7256 79.93728 25.7256 81.32328 
L 25.7256 120.46392 
Q 25.7256 121.84992 27.1206 121.84992 
z
" clip-path="url(#p3b8fa05bbe)" style="fill: #f7f7f7; stroke: #2f2f2f; stroke-linejoin: miter"/>
   </g>
   <g id="patch_3">
    <path d="M 27.1206 271.53792 
L 101.6694 271.53792 
Q 103.0644 271.53792 103.0644 270.15192 
L 103.0644 231.01128 
Q 103.0644 229.62528 101.6694 229.62528 
L 27.1206 229.62528 
Q 25.7256 229.62528 25.7256 231.01128 
L 25.7256 270.15192 
Q 25.7256 271.53792 27.1206 271.53792 
z
" clip-path="url(#p3b8fa05bbe)" style="fill: #f7f7f7; stroke: #2f2f2f; stroke-linejoin: miter"/>
   </g>
   <g id="patch_4">
    <path d="M 124.7706 121.84992 
L 204.8994 121.84992 
Q 206.2944 121.84992 206.2944 120.46392 
L 206.2944 81.32328 
Q 206.2944 79.93728 204.8994 79.93728 
L 124.7706 79.93728 
Q 123.3756 79.93728 123.3756 81.32328 
L 123.3756 120.46392 
Q 123.3756 121.84992 124.7706 121.84992 
z
" clip-path="url(#p3b8fa05bbe)" style="fill: #eaf3fb; stroke: #2f2f2f; stroke-linejoin: miter"/>
   </g>
   <g id="patch_5">
    <path d="M 233.5806 84.70512 
L 327.6594 84.70512 
Q 329.0544 84.70512 329.0544 83.31912 
L 329.0544 41.96088 
Q 329.0544 40.57488 327.6594 40.57488 
L 233.5806 40.57488 
Q 232.1856 40.57488 232.1856 41.96088 
L 232.1856 83.31912 
Q 232.1856 84.70512 233.5806 84.70512 
z
" clip-path="url(#p3b8fa05bbe)" style="fill: #eaf3fb; stroke: #2f2f2f; stroke-linejoin: miter"/>
   </g>
   <g id="patch_6">
    <path d="M 233.5806 151.23312 
L 327.6594 151.23312 
Q 329.0544 151.23312 329.0544 149.84712 
L 329.0544 108.48888 
Q 329.0544 107.10288 327.6594 107.10288 
L 233.5806 107.10288 
Q 232.1856 107.10288 232.1856 108.48888 
L 232.1856 149.84712 
Q 232.1856 151.23312 233.5806 151.23312 
z
" clip-path="url(#p3b8fa05bbe)" style="fill: #f7f1e4; stroke: #2f2f2f; stroke-linejoin: miter"/>
   </g>
   <g id="patch_7">
    <path d="M 361.9206 84.70512 
L 457.1154 84.70512 
Q 458.5104 84.70512 458.5104 83.31912 
L 458.5104 41.96088 
Q 458.5104 40.57488 457.1154 40.57488 
L 361.9206 40.57488 
Q 360.5256 40.57488 360.5256 41.96088 
L 360.5256 83.31912 
Q 360.5256 84.70512 361.9206 84.70512 
z
" clip-path="url(#p3b8fa05bbe)" style="fill: #f7f1e4; stroke: #2f2f2f; stroke-linejoin: miter"/>
   </g>
   <g id="patch_8">
    <path d="M 484.6806 121.84992 
L 587.1294 121.84992 
Q 588.5244 121.84992 588.5244 120.46392 
L 588.5244 75.77928 
Q 588.5244 74.39328 587.1294 74.39328 
L 484.6806 74.39328 
Q 483.2856 74.39328 483.2856 75.77928 
L 483.2856 120.46392 
Q 483.2856 121.84992 484.6806 121.84992 
z
" clip-path="url(#p3b8fa05bbe)" style="fill: #eef4ee; stroke: #2f2f2f; stroke-linejoin: miter"/>
   </g>
   <g id="patch_9">
    <path d="M 124.7706 271.53792 
L 204.8994 271.53792 
Q 206.2944 271.53792 206.2944 270.15192 
L 206.2944 231.01128 
Q 206.2944 229.62528 204.8994 229.62528 
L 124.7706 229.62528 
Q 123.3756 229.62528 123.3756 231.01128 
L 123.3756 270.15192 
Q 123.3756 271.53792 124.7706 271.53792 
z
" clip-path="url(#p3b8fa05bbe)" style="fill: #eaf3fb; stroke: #2f2f2f; stroke-linejoin: miter"/>
   </g>
   <g id="patch_10">
    <path d="M 233.5806 271.53792 
L 338.8194 271.53792 
Q 340.2144 271.53792 340.2144 270.15192 
L 340.2144 231.01128 
Q 340.2144 229.62528 338.8194 229.62528 
L 233.5806 229.62528 
Q 232.1856 229.62528 232.1856 231.01128 
L 232.1856 270.15192 
Q 232.1856 271.53792 233.5806 271.53792 
z
" clip-path="url(#p3b8fa05bbe)" style="fill: #eef4ee; stroke: #2f2f2f; stroke-linejoin: miter"/>
   </g>
   <g id="patch_11">
    <path d="M 624.1806 195.58512 
L 709.8894 195.58512 
Q 711.2844 195.58512 711.2844 194.19912 
L 711.2844 146.18808 
Q 711.2844 144.80208 709.8894 144.80208 
L 624.1806 144.80208 
Q 622.7856 144.80208 622.7856 146.18808 
L 622.7856 194.19912 
Q 622.7856 195.58512 624.1806 195.58512 
z
" clip-path="url(#p3b8fa05bbe)" style="fill: #eef4ee; stroke: #2f2f2f; stroke-linejoin: miter"/>
   </g>
   <g id="patch_12">
    <path d="M 737.4546 195.58512 
L 823.1634 195.58512 
Q 824.5584 195.58512 824.5584 194.19912 
L 824.5584 146.18808 
Q 824.5584 144.80208 823.1634 144.80208 
L 737.4546 144.80208 
Q 736.0596 144.80208 736.0596 146.18808 
L 736.0596 194.19912 
Q 736.0596 195.58512 737.4546 195.58512 
z
" clip-path="url(#p3b8fa05bbe)" style="fill: #eef4ee; stroke: #2f2f2f; stroke-linejoin: miter"/>
   </g>
   <g id="patch_13">
    <path d="M 849.0546 201.12912 
L 993.3534 201.12912 
Q 994.7484 201.12912 994.7484 199.74312 
L 994.7484 140.64408 
Q 994.7484 139.25808 993.3534 139.25808 
L 849.0546 139.25808 
Q 847.6596 139.25808 847.6596 140.64408 
L 847.6596 199.74312 
Q 847.6596 201.12912 849.0546 201.12912 
z
" clip-path="url(#p3b8fa05bbe)" style="fill: #edf4ff; stroke: #2f2f2f; stroke-width: 1.2; stroke-linejoin: miter"/>
   </g>
   <g id="patch_14">
    <path d="M 894.8106 292.05072 
L 947.0394 292.05072 
Q 948.4344 292.05072 948.4344 290.66472 
L 948.4344 237.10968 
Q 948.4344 235.72368 947.0394 235.72368 
L 894.8106 235.72368 
Q 893.4156 235.72368 893.4156 237.10968 
L 893.4156 290.66472 
Q 893.4156 292.05072 894.8106 292.05072 
z
" clip-path="url(#p3b8fa05bbe)" style="fill: #edf4ff; stroke: #2f2f2f; stroke-width: 1.2; stroke-linejoin: miter"/>
   </g>
   <g id="patch_15">
    <path d="M 958.9806 292.05072 
L 1012.8834 292.05072 
Q 1014.2784 292.05072 1014.2784 290.66472 
L 1014.2784 237.10968 
Q 1014.2784 235.72368 1012.8834 235.72368 
L 958.9806 235.72368 
Q 957.5856 235.72368 957.5856 237.10968 
L 957.5856 290.66472 
Q 957.5856 292.05072 958.9806 292.05072 
z
" clip-path="url(#p3b8fa05bbe)" style="fill: #f4f4f4; stroke: #2f2f2f; stroke-linejoin: miter"/>
   </g>
   <g id="patch_16">
    <path d="M 106.062451 100.8936 
Q 113.21998 100.8936 119.371278 100.8936 
" clip-path="url(#p3b8fa05bbe)" style="fill: none; stroke: #333333; stroke-width: 0.9; stroke-linecap: round"/>
    <path d="M 115.971278 99.1936 
L 119.371278 100.8936 
L 115.971278 102.5936 
z
" clip-path="url(#p3b8fa05bbe)" style="fill: #333333; stroke: #333333; stroke-width: 0.9; stroke-linecap: round"/>
   </g>
   <g id="patch_17">
    <path d="M 208.190364 98.140937 
Q 222.481944 84.132439 231.00314 67.143815 
" clip-path="url(#p3b8fa05bbe)" style="fill: none; stroke: #333333; stroke-width: 0.9; stroke-linecap: round"/>
    <path d="M 227.959204 69.420756 
L 231.00314 67.143815 
L 230.998331 70.945128 
z
" clip-path="url(#p3b8fa05bbe)" style="fill: #333333; stroke: #333333; stroke-width: 0.9; stroke-linecap: round"/>
   </g>
   <g id="patch_18">
    <path d="M 208.341097 103.475662 
Q 220.397834 113.886596 229.999843 125.310616 
" clip-path="url(#p3b8fa05bbe)" style="fill: none; stroke: #333333; stroke-width: 0.9; stroke-linecap: round"/>
    <path d="M 229.113582 121.614058 
L 229.999843 125.310616 
L 226.51084 123.80169 
z
" clip-path="url(#p3b8fa05bbe)" style="fill: #333333; stroke: #333333; stroke-width: 0.9; stroke-linecap: round"/>
   </g>
   <g id="patch_19">
    <path d="M 330.907967 126.367201 
Q 355.610261 101.347763 360.830207 67.595701 
" clip-path="url(#p3b8fa05bbe)" style="fill: none; stroke: #333333; stroke-width: 0.9; stroke-linecap: round"/>
    <path d="M 358.630528 70.695929 
L 360.830207 67.595701 
L 361.990582 71.21558 
z
" clip-path="url(#p3b8fa05bbe)" style="fill: #333333; stroke: #333333; stroke-width: 0.9; stroke-linecap: round"/>
   </g>
   <g id="patch_20">
    <path d="M 332.029456 63.066695 
Q 408.19751 71.460211 479.570005 96.456135 
" clip-path="url(#p3b8fa05bbe)" style="fill: none; stroke: #333333; stroke-width: 0.9; stroke-linecap: round"/>
    <path d="M 476.923012 93.72787 
L 479.570005 96.456135 
L 475.799198 96.936771 
z
" clip-path="url(#p3b8fa05bbe)" style="fill: #333333; stroke: #333333; stroke-width: 0.9; stroke-linecap: round"/>
   </g>
   <g id="patch_21">
    <path d="M 460.178828 65.612363 
Q 470.446833 76.936407 480.689879 86.886064 
" clip-path="url(#p3b8fa05bbe)" style="fill: none; stroke: #333333; stroke-width: 0.9; stroke-linecap: round"/>
    <path d="M 479.435533 83.297664 
L 480.689879 86.886064 
L 477.066551 85.7365 
z
" clip-path="url(#p3b8fa05bbe)" style="fill: #333333; stroke: #333333; stroke-width: 0.9; stroke-linecap: round"/>
   </g>
   <g id="patch_22">
    <path d="M 590.024922 101.245029 
Q 609.400229 125.794831 621.77351 153.418694 
" clip-path="url(#p3b8fa05bbe)" style="fill: none; stroke: #333333; stroke-width: 0.9; stroke-linecap: round"/>
    <path d="M 621.935111 149.620815 
L 621.77351 153.418694 
L 618.832167 151.010685 
z
" clip-path="url(#p3b8fa05bbe)" style="fill: #333333; stroke: #333333; stroke-width: 0.9; stroke-linecap: round"/>
   </g>
   <g id="patch_23">
    <path d="M 332.043197 128.947404 
Q 479.968951 121.150931 619.058834 169.10608 
" clip-path="url(#p3b8fa05bbe)" style="fill: none; stroke: #333333; stroke-width: 0.9; stroke-linecap: round"/>
    <path d="M 616.39863 166.390695 
L 619.058834 169.10608 
L 615.290403 169.605013 
z
" clip-path="url(#p3b8fa05bbe)" style="fill: #333333; stroke: #333333; stroke-width: 0.9; stroke-linecap: round"/>
   </g>
   <g id="patch_24">
    <path d="M 106.062451 250.5816 
Q 113.21998 250.5816 119.371278 250.5816 
" clip-path="url(#p3b8fa05bbe)" style="fill: none; stroke: #333333; stroke-width: 0.9; stroke-linecap: round"/>
    <path d="M 115.971278 248.8816 
L 119.371278 250.5816 
L 115.971278 252.2816 
z
" clip-path="url(#p3b8fa05bbe)" style="fill: #333333; stroke: #333333; stroke-width: 0.9; stroke-linecap: round"/>
   </g>
   <g id="patch_25">
    <path d="M 209.29177 250.5816 
Q 219.2411 250.5816 228.1842 250.5816 
" clip-path="url(#p3b8fa05bbe)" style="fill: none; stroke: #333333; stroke-width: 0.9; stroke-linecap: round"/>
    <path d="M 224.7842 248.8816 
L 228.1842 250.5816 
L 224.7842 252.2816 
z
" clip-path="url(#p3b8fa05bbe)" style="fill: #333333; stroke: #333333; stroke-width: 0.9; stroke-linecap: round"/>
   </g>
   <g id="patch_26">
    <path d="M 343.193247 250.186794 
Q 487.285538 235.59933 619.199141 178.295452 
" clip-path="url(#p3b8fa05bbe)" style="fill: none; stroke: #333333; stroke-width: 0.9; stroke-linecap: round"/>
    <path d="M 615.403333 178.090895 
L 619.199141 178.295452 
L 616.75801 181.209364 
z
" clip-path="url(#p3b8fa05bbe)" style="fill: #333333; stroke: #333333; stroke-width: 0.9; stroke-linecap: round"/>
   </g>
   <g id="patch_27">
    <path d="M 714.278637 170.1936 
Q 723.670089 170.1936 732.055311 170.1936 
" clip-path="url(#p3b8fa05bbe)" style="fill: none; stroke: #333333; stroke-width: 0.9; stroke-linecap: round"/>
    <path d="M 728.655311 168.4936 
L 732.055311 170.1936 
L 728.655311 171.8936 
z
" clip-path="url(#p3b8fa05bbe)" style="fill: #333333; stroke: #333333; stroke-width: 0.9; stroke-linecap: round"/>
   </g>
   <g id="patch_28">
    <path d="M 827.554067 170.1936 
Q 836.108074 170.1936 843.65585 170.1936 
" clip-path="url(#p3b8fa05bbe)" style="fill: none; stroke: #333333; stroke-width: 0.9; stroke-linecap: round"/>
    <path d="M 840.25585 168.4936 
L 843.65585 170.1936 
L 840.25585 171.8936 
z
" clip-path="url(#p3b8fa05bbe)" style="fill: #333333; stroke: #333333; stroke-width: 0.9; stroke-linecap: round"/>
   </g>
   <g id="patch_29">
    <path d="M 920.818966 204.108238 
Q 919.589885 218.41264 920.529485 231.730383 
" clip-path="url(#p3b8fa05bbe)" style="fill: none; stroke: #333333; stroke-width: 0.9; stroke-linecap: round"/>
    <path d="M 921.985986 228.219172 
L 920.529485 231.730383 
L 918.594417 228.458455 
z
" clip-path="url(#p3b8fa05bbe)" style="fill: #333333; stroke: #333333; stroke-width: 0.9; stroke-linecap: round"/>
   </g>
   <g id="patch_30">
    <path d="M 951.432451 263.8872 
Q 953.010397 263.8872 953.582112 263.8872 
" clip-path="url(#p3b8fa05bbe)" style="fill: none; stroke: #333333; stroke-width: 0.9; stroke-linecap: round"/>
    <path d="M 950.182112 262.1872 
L 953.582112 263.8872 
L 950.182112 265.5872 
z
" clip-path="url(#p3b8fa05bbe)" style="fill: #333333; stroke: #333333; stroke-width: 0.9; stroke-linecap: round"/>
   </g>
   <g id="text_1">
    <!-- Face frame -->
    <g style="fill: #111111" transform="translate(40.5515 98.51695) scale(0.086 -0.086)">
     <defs>
      <path id="DejaVuSans-46" d="M 628 4666 
L 3309 4666 
L 3309 4134 
L 1259 4134 
L 1259 2759 
L 3109 2759 
L 3109 2228 
L 1259 2228 
L 1259 0 
L 628 0 
L 628 4666 
z
" transform="scale(0.015625)"/>
      <path id="DejaVuSans-61" d="M 2194 1759 
Q 1497 1759 1228 1600 
Q 959 1441 959 1056 
Q 959 750 1161 570 
Q 1363 391 1709 391 
Q 2188 391 2477 730 
Q 2766 1069 2766 1631 
L 2766 1759 
L 2194 1759 
z
M 3341 1997 
L 3341 0 
L 2766 0 
L 2766 531 
Q 2569 213 2275 61 
Q 1981 -91 1556 -91 
Q 1019 -91 701 211 
Q 384 513 384 1019 
Q 384 1609 779 1909 
Q 1175 2209 1959 2209 
L 2766 2209 
L 2766 2266 
Q 2766 2663 2505 2880 
Q 2244 3097 1772 3097 
Q 1472 3097 1187 3025 
Q 903 2953 641 2809 
L 641 3341 
Q 956 3463 1253 3523 
Q 1550 3584 1831 3584 
Q 2591 3584 2966 3190 
Q 3341 2797 3341 1997 
z
" transform="scale(0.015625)"/>
      <path id="DejaVuSans-63" d="M 3122 3366 
L 3122 2828 
Q 2878 2963 2633 3030 
Q 2388 3097 2138 3097 
Q 1578 3097 1268 2742 
Q 959 2388 959 1747 
Q 959 1106 1268 751 
Q 1578 397 2138 397 
Q 2388 397 2633 464 
Q 2878 531 3122 666 
L 3122 134 
Q 2881 22 2623 -34 
Q 2366 -91 2075 -91 
Q 1284 -91 818 406 
Q 353 903 353 1747 
Q 353 2603 823 3093 
Q 1294 3584 2113 3584 
Q 2378 3584 2631 3529 
Q 2884 3475 3122 3366 
z
" transform="scale(0.015625)"/>
      <path id="DejaVuSans-65" d="M 3597 1894 
L 3597 1613 
L 953 1613 
Q 991 1019 1311 708 
Q 1631 397 2203 397 
Q 2534 397 2845 478 
Q 3156 559 3463 722 
L 3463 178 
Q 3153 47 2828 -22 
Q 2503 -91 2169 -91 
Q 1331 -91 842 396 
Q 353 884 353 1716 
Q 353 2575 817 3079 
Q 1281 3584 2069 3584 
Q 2775 3584 3186 3129 
Q 3597 2675 3597 1894 
z
M 3022 2063 
Q 3016 2534 2758 2815 
Q 2500 3097 2075 3097 
Q 1594 3097 1305 2825 
Q 1016 2553 972 2059 
L 3022 2063 
z
" transform="scale(0.015625)"/>
      <path id="DejaVuSans-20" transform="scale(0.015625)"/>
      <path id="DejaVuSans-66" d="M 2375 4863 
L 2375 4384 
L 1825 4384 
Q 1516 4384 1395 4259 
Q 1275 4134 1275 3809 
L 1275 3500 
L 2222 3500 
L 2222 3053 
L 1275 3053 
L 1275 0 
L 697 0 
L 697 3053 
L 147 3053 
L 147 3500 
L 697 3500 
L 697 3744 
Q 697 4328 969 4595 
Q 1241 4863 1831 4863 
L 2375 4863 
z
" transform="scale(0.015625)"/>
      <path id="DejaVuSans-72" d="M 2631 2963 
Q 2534 3019 2420 3045 
Q 2306 3072 2169 3072 
Q 1681 3072 1420 2755 
Q 1159 2438 1159 1844 
L 1159 0 
L 581 0 
L 581 3500 
L 1159 3500 
L 1159 2956 
Q 1341 3275 1631 3429 
Q 1922 3584 2338 3584 
Q 2397 3584 2469 3576 
Q 2541 3569 2628 3553 
L 2631 2963 
z
" transform="scale(0.015625)"/>
      <path id="DejaVuSans-6d" d="M 3328 2828 
Q 3544 3216 3844 3400 
Q 4144 3584 4550 3584 
Q 5097 3584 5394 3201 
Q 5691 2819 5691 2113 
L 5691 0 
L 5113 0 
L 5113 2094 
Q 5113 2597 4934 2840 
Q 4756 3084 4391 3084 
Q 3944 3084 3684 2787 
Q 3425 2491 3425 1978 
L 3425 0 
L 2847 0 
L 2847 2094 
Q 2847 2600 2669 2842 
Q 2491 3084 2119 3084 
Q 1678 3084 1418 2786 
Q 1159 2488 1159 1978 
L 1159 0 
L 581 0 
L 581 3500 
L 1159 3500 
L 1159 2956 
Q 1356 3278 1631 3431 
Q 1906 3584 2284 3584 
Q 2666 3584 2933 3390 
Q 3200 3197 3328 2828 
z
" transform="scale(0.015625)"/>
     </defs>
     <use xlink:href="#DejaVuSans-46"/>
     <use xlink:href="#DejaVuSans-61" transform="translate(48.394531 0)"/>
     <use xlink:href="#DejaVuSans-63" transform="translate(109.673828 0)"/>
     <use xlink:href="#DejaVuSans-65" transform="translate(164.654297 0)"/>
     <use xlink:href="#DejaVuSans-20" transform="translate(226.177734 0)"/>
     <use xlink:href="#DejaVuSans-66" transform="translate(257.964844 0)"/>
     <use xlink:href="#DejaVuSans-72" transform="translate(293.169922 0)"/>
     <use xlink:href="#DejaVuSans-61" transform="translate(334.283203 0)"/>
     <use xlink:href="#DejaVuSans-6d" transform="translate(395.5625 0)"/>
     <use xlink:href="#DejaVuSans-65" transform="translate(492.974609 0)"/>
    </g>
    <!-- BGR image -->
    <g style="fill: #111111" transform="translate(40.439969 108.016375) scale(0.086 -0.086)">
     <defs>
      <path id="DejaVuSans-42" d="M 1259 2228 
L 1259 519 
L 2272 519 
Q 2781 519 3026 730 
Q 3272 941 3272 1375 
Q 3272 1813 3026 2020 
Q 2781 2228 2272 2228 
L 1259 2228 
z
M 1259 4147 
L 1259 2741 
L 2194 2741 
Q 2656 2741 2882 2914 
Q 3109 3088 3109 3444 
Q 3109 3797 2882 3972 
Q 2656 4147 2194 4147 
L 1259 4147 
z
M 628 4666 
L 2241 4666 
Q 2963 4666 3353 4366 
Q 3744 4066 3744 3513 
Q 3744 3084 3544 2831 
Q 3344 2578 2956 2516 
Q 3422 2416 3680 2098 
Q 3938 1781 3938 1306 
Q 3938 681 3513 340 
Q 3088 0 2303 0 
L 628 0 
L 628 4666 
z
" transform="scale(0.015625)"/>
      <path id="DejaVuSans-47" d="M 3809 666 
L 3809 1919 
L 2778 1919 
L 2778 2438 
L 4434 2438 
L 4434 434 
Q 4069 175 3628 42 
Q 3188 -91 2688 -91 
Q 1594 -91 976 548 
Q 359 1188 359 2328 
Q 359 3472 976 4111 
Q 1594 4750 2688 4750 
Q 3144 4750 3555 4637 
Q 3966 4525 4313 4306 
L 4313 3634 
Q 3963 3931 3569 4081 
Q 3175 4231 2741 4231 
Q 1884 4231 1454 3753 
Q 1025 3275 1025 2328 
Q 1025 1384 1454 906 
Q 1884 428 2741 428 
Q 3075 428 3337 486 
Q 3600 544 3809 666 
z
" transform="scale(0.015625)"/>
      <path id="DejaVuSans-52" d="M 2841 2188 
Q 3044 2119 3236 1894 
Q 3428 1669 3622 1275 
L 4263 0 
L 3584 0 
L 2988 1197 
Q 2756 1666 2539 1819 
Q 2322 1972 1947 1972 
L 1259 1972 
L 1259 0 
L 628 0 
L 628 4666 
L 2053 4666 
Q 2853 4666 3247 4331 
Q 3641 3997 3641 3322 
Q 3641 2881 3436 2590 
Q 3231 2300 2841 2188 
z
M 1259 4147 
L 1259 2491 
L 2053 2491 
Q 2509 2491 2742 2702 
Q 2975 2913 2975 3322 
Q 2975 3731 2742 3939 
Q 2509 4147 2053 4147 
L 1259 4147 
z
" transform="scale(0.015625)"/>
      <path id="DejaVuSans-69" d="M 603 3500 
L 1178 3500 
L 1178 0 
L 603 0 
L 603 3500 
z
M 603 4863 
L 1178 4863 
L 1178 4134 
L 603 4134 
L 603 4863 
z
" transform="scale(0.015625)"/>
      <path id="DejaVuSans-67" d="M 2906 1791 
Q 2906 2416 2648 2759 
Q 2391 3103 1925 3103 
Q 1463 3103 1205 2759 
Q 947 2416 947 1791 
Q 947 1169 1205 825 
Q 1463 481 1925 481 
Q 2391 481 2648 825 
Q 2906 1169 2906 1791 
z
M 3481 434 
Q 3481 -459 3084 -895 
Q 2688 -1331 1869 -1331 
Q 1566 -1331 1297 -1286 
Q 1028 -1241 775 -1147 
L 775 -588 
Q 1028 -725 1275 -790 
Q 1522 -856 1778 -856 
Q 2344 -856 2625 -561 
Q 2906 -266 2906 331 
L 2906 616 
Q 2728 306 2450 153 
Q 2172 0 1784 0 
Q 1141 0 747 490 
Q 353 981 353 1791 
Q 353 2603 747 3093 
Q 1141 3584 1784 3584 
Q 2172 3584 2450 3431 
Q 2728 3278 2906 2969 
L 2906 3500 
L 3481 3500 
L 3481 434 
z
" transform="scale(0.015625)"/>
     </defs>
     <use xlink:href="#DejaVuSans-42"/>
     <use xlink:href="#DejaVuSans-47" transform="translate(66.853516 0)"/>
     <use xlink:href="#DejaVuSans-52" transform="translate(144.34375 0)"/>
     <use xlink:href="#DejaVuSans-20" transform="translate(213.826172 0)"/>
     <use xlink:href="#DejaVuSans-69" transform="translate(245.613281 0)"/>
     <use xlink:href="#DejaVuSans-6d" transform="translate(273.396484 0)"/>
     <use xlink:href="#DejaVuSans-61" transform="translate(370.808594 0)"/>
     <use xlink:href="#DejaVuSans-67" transform="translate(432.087891 0)"/>
     <use xlink:href="#DejaVuSans-65" transform="translate(495.564453 0)"/>
    </g>
   </g>
   <g id="text_2">
    <!-- Body frame -->
    <g style="fill: #111111" transform="translate(39.421406 248.20495) scale(0.086 -0.086)">
     <defs>
      <path id="DejaVuSans-6f" d="M 1959 3097 
Q 1497 3097 1228 2736 
Q 959 2375 959 1747 
Q 959 1119 1226 758 
Q 1494 397 1959 397 
Q 2419 397 2687 759 
Q 2956 1122 2956 1747 
Q 2956 2369 2687 2733 
Q 2419 3097 1959 3097 
z
M 1959 3584 
Q 2709 3584 3137 3096 
Q 3566 2609 3566 1747 
Q 3566 888 3137 398 
Q 2709 -91 1959 -91 
Q 1206 -91 779 398 
Q 353 888 353 1747 
Q 353 2609 779 3096 
Q 1206 3584 1959 3584 
z
" transform="scale(0.015625)"/>
      <path id="DejaVuSans-64" d="M 2906 2969 
L 2906 4863 
L 3481 4863 
L 3481 0 
L 2906 0 
L 2906 525 
Q 2725 213 2448 61 
Q 2172 -91 1784 -91 
Q 1150 -91 751 415 
Q 353 922 353 1747 
Q 353 2572 751 3078 
Q 1150 3584 1784 3584 
Q 2172 3584 2448 3432 
Q 2725 3281 2906 2969 
z
M 947 1747 
Q 947 1113 1208 752 
Q 1469 391 1925 391 
Q 2381 391 2643 752 
Q 2906 1113 2906 1747 
Q 2906 2381 2643 2742 
Q 2381 3103 1925 3103 
Q 1469 3103 1208 2742 
Q 947 2381 947 1747 
z
" transform="scale(0.015625)"/>
      <path id="DejaVuSans-79" d="M 2059 -325 
Q 1816 -950 1584 -1140 
Q 1353 -1331 966 -1331 
L 506 -1331 
L 506 -850 
L 844 -850 
Q 1081 -850 1212 -737 
Q 1344 -625 1503 -206 
L 1606 56 
L 191 3500 
L 800 3500 
L 1894 763 
L 2988 3500 
L 3597 3500 
L 2059 -325 
z
" transform="scale(0.015625)"/>
     </defs>
     <use xlink:href="#DejaVuSans-42"/>
     <use xlink:href="#DejaVuSans-6f" transform="translate(68.603516 0)"/>
     <use xlink:href="#DejaVuSans-64" transform="translate(129.785156 0)"/>
     <use xlink:href="#DejaVuSans-79" transform="translate(193.261719 0)"/>
     <use xlink:href="#DejaVuSans-20" transform="translate(252.441406 0)"/>
     <use xlink:href="#DejaVuSans-66" transform="translate(284.228516 0)"/>
     <use xlink:href="#DejaVuSans-72" transform="translate(319.433594 0)"/>
     <use xlink:href="#DejaVuSans-61" transform="translate(360.546875 0)"/>
     <use xlink:href="#DejaVuSans-6d" transform="translate(421.826172 0)"/>
     <use xlink:href="#DejaVuSans-65" transform="translate(519.238281 0)"/>
    </g>
    <!-- BGR image -->
    <g style="fill: #111111" transform="translate(40.439969 257.704375) scale(0.086 -0.086)">
     <use xlink:href="#DejaVuSans-42"/>
     <use xlink:href="#DejaVuSans-47" transform="translate(66.853516 0)"/>
     <use xlink:href="#DejaVuSans-52" transform="translate(144.34375 0)"/>
     <use xlink:href="#DejaVuSans-20" transform="translate(213.826172 0)"/>
     <use xlink:href="#DejaVuSans-69" transform="translate(245.613281 0)"/>
     <use xlink:href="#DejaVuSans-6d" transform="translate(273.396484 0)"/>
     <use xlink:href="#DejaVuSans-61" transform="translate(370.808594 0)"/>
     <use xlink:href="#DejaVuSans-67" transform="translate(432.087891 0)"/>
     <use xlink:href="#DejaVuSans-65" transform="translate(495.564453 0)"/>
    </g>
   </g>
   <g id="text_3">
    <!-- YOLO-Face -->
    <g style="fill: #111111" transform="translate(142.039625 98.51695) scale(0.086 -0.086)">
     <defs>
      <path id="DejaVuSans-59" d="M -13 4666 
L 666 4666 
L 1959 2747 
L 3244 4666 
L 3922 4666 
L 2272 2222 
L 2272 0 
L 1638 0 
L 1638 2222 
L -13 4666 
z
" transform="scale(0.015625)"/>
      <path id="DejaVuSans-4f" d="M 2522 4238 
Q 1834 4238 1429 3725 
Q 1025 3213 1025 2328 
Q 1025 1447 1429 934 
Q 1834 422 2522 422 
Q 3209 422 3611 934 
Q 4013 1447 4013 2328 
Q 4013 3213 3611 3725 
Q 3209 4238 2522 4238 
z
M 2522 4750 
Q 3503 4750 4090 4092 
Q 4678 3434 4678 2328 
Q 4678 1225 4090 567 
Q 3503 -91 2522 -91 
Q 1538 -91 948 565 
Q 359 1222 359 2328 
Q 359 3434 948 4092 
Q 1538 4750 2522 4750 
z
" transform="scale(0.015625)"/>
      <path id="DejaVuSans-4c" d="M 628 4666 
L 1259 4666 
L 1259 531 
L 3531 531 
L 3531 0 
L 628 0 
L 628 4666 
z
" transform="scale(0.015625)"/>
      <path id="DejaVuSans-2d" d="M 313 2009 
L 1997 2009 
L 1997 1497 
L 313 1497 
L 313 2009 
z
" transform="scale(0.015625)"/>
     </defs>
     <use xlink:href="#DejaVuSans-59"/>
     <use xlink:href="#DejaVuSans-4f" transform="translate(55.583984 0)"/>
     <use xlink:href="#DejaVuSans-4c" transform="translate(134.294922 0)"/>
     <use xlink:href="#DejaVuSans-4f" transform="translate(186.382812 0)"/>
     <use xlink:href="#DejaVuSans-2d" transform="translate(267.84375 0)"/>
     <use xlink:href="#DejaVuSans-46" transform="translate(303.927734 0)"/>
     <use xlink:href="#DejaVuSans-61" transform="translate(352.322266 0)"/>
     <use xlink:href="#DejaVuSans-63" transform="translate(413.601562 0)"/>
     <use xlink:href="#DejaVuSans-65" transform="translate(468.582031 0)"/>
    </g>
    <!-- bbox + score -->
    <g style="fill: #111111" transform="translate(136.444922 108.016375) scale(0.086 -0.086)">
     <defs>
      <path id="DejaVuSans-62" d="M 3116 1747 
Q 3116 2381 2855 2742 
Q 2594 3103 2138 3103 
Q 1681 3103 1420 2742 
Q 1159 2381 1159 1747 
Q 1159 1113 1420 752 
Q 1681 391 2138 391 
Q 2594 391 2855 752 
Q 3116 1113 3116 1747 
z
M 1159 2969 
Q 1341 3281 1617 3432 
Q 1894 3584 2278 3584 
Q 2916 3584 3314 3078 
Q 3713 2572 3713 1747 
Q 3713 922 3314 415 
Q 2916 -91 2278 -91 
Q 1894 -91 1617 61 
Q 1341 213 1159 525 
L 1159 0 
L 581 0 
L 581 4863 
L 1159 4863 
L 1159 2969 
z
" transform="scale(0.015625)"/>
      <path id="DejaVuSans-78" d="M 3513 3500 
L 2247 1797 
L 3578 0 
L 2900 0 
L 1881 1375 
L 863 0 
L 184 0 
L 1544 1831 
L 300 3500 
L 978 3500 
L 1906 2253 
L 2834 3500 
L 3513 3500 
z
" transform="scale(0.015625)"/>
      <path id="DejaVuSans-2b" d="M 2944 4013 
L 2944 2272 
L 4684 2272 
L 4684 1741 
L 2944 1741 
L 2944 0 
L 2419 0 
L 2419 1741 
L 678 1741 
L 678 2272 
L 2419 2272 
L 2419 4013 
L 2944 4013 
z
" transform="scale(0.015625)"/>
      <path id="DejaVuSans-73" d="M 2834 3397 
L 2834 2853 
Q 2591 2978 2328 3040 
Q 2066 3103 1784 3103 
Q 1356 3103 1142 2972 
Q 928 2841 928 2578 
Q 928 2378 1081 2264 
Q 1234 2150 1697 2047 
L 1894 2003 
Q 2506 1872 2764 1633 
Q 3022 1394 3022 966 
Q 3022 478 2636 193 
Q 2250 -91 1575 -91 
Q 1294 -91 989 -36 
Q 684 19 347 128 
L 347 722 
Q 666 556 975 473 
Q 1284 391 1588 391 
Q 1994 391 2212 530 
Q 2431 669 2431 922 
Q 2431 1156 2273 1281 
Q 2116 1406 1581 1522 
L 1381 1569 
Q 847 1681 609 1914 
Q 372 2147 372 2553 
Q 372 3047 722 3315 
Q 1072 3584 1716 3584 
Q 2034 3584 2315 3537 
Q 2597 3491 2834 3397 
z
" transform="scale(0.015625)"/>
     </defs>
     <use xlink:href="#DejaVuSans-62"/>
     <use xlink:href="#DejaVuSans-62" transform="translate(63.476562 0)"/>
     <use xlink:href="#DejaVuSans-6f" transform="translate(126.953125 0)"/>
     <use xlink:href="#DejaVuSans-78" transform="translate(185.009766 0)"/>
     <use xlink:href="#DejaVuSans-20" transform="translate(244.189453 0)"/>
     <use xlink:href="#DejaVuSans-2b" transform="translate(275.976562 0)"/>
     <use xlink:href="#DejaVuSans-20" transform="translate(359.765625 0)"/>
     <use xlink:href="#DejaVuSans-73" transform="translate(391.552734 0)"/>
     <use xlink:href="#DejaVuSans-63" transform="translate(443.652344 0)"/>
     <use xlink:href="#DejaVuSans-6f" transform="translate(498.632812 0)"/>
     <use xlink:href="#DejaVuSans-72" transform="translate(559.814453 0)"/>
     <use xlink:href="#DejaVuSans-65" transform="translate(598.677734 0)"/>
    </g>
   </g>
   <g id="text_4">
    <!-- MediaPipe -->
    <g style="fill: #111111" transform="translate(259.660672 55.845096) scale(0.082 -0.082)">
     <defs>
      <path id="DejaVuSans-4d" d="M 628 4666 
L 1569 4666 
L 2759 1491 
L 3956 4666 
L 4897 4666 
L 4897 0 
L 4281 0 
L 4281 4097 
L 3078 897 
L 2444 897 
L 1241 4097 
L 1241 0 
L 628 0 
L 628 4666 
z
" transform="scale(0.015625)"/>
      <path id="DejaVuSans-50" d="M 1259 4147 
L 1259 2394 
L 2053 2394 
Q 2494 2394 2734 2622 
Q 2975 2850 2975 3272 
Q 2975 3691 2734 3919 
Q 2494 4147 2053 4147 
L 1259 4147 
z
M 628 4666 
L 2053 4666 
Q 2838 4666 3239 4311 
Q 3641 3956 3641 3272 
Q 3641 2581 3239 2228 
Q 2838 1875 2053 1875 
L 1259 1875 
L 1259 0 
L 628 0 
L 628 4666 
z
" transform="scale(0.015625)"/>
      <path id="DejaVuSans-70" d="M 1159 525 
L 1159 -1331 
L 581 -1331 
L 581 3500 
L 1159 3500 
L 1159 2969 
Q 1341 3281 1617 3432 
Q 1894 3584 2278 3584 
Q 2916 3584 3314 3078 
Q 3713 2572 3713 1747 
Q 3713 922 3314 415 
Q 2916 -91 2278 -91 
Q 1894 -91 1617 61 
Q 1341 213 1159 525 
z
M 3116 1747 
Q 3116 2381 2855 2742 
Q 2594 3103 2138 3103 
Q 1681 3103 1420 2742 
Q 1159 2381 1159 1747 
Q 1159 1113 1420 752 
Q 1681 391 2138 391 
Q 2594 391 2855 752 
Q 3116 1113 3116 1747 
z
" transform="scale(0.015625)"/>
     </defs>
     <use xlink:href="#DejaVuSans-4d"/>
     <use xlink:href="#DejaVuSans-65" transform="translate(86.279297 0)"/>
     <use xlink:href="#DejaVuSans-64" transform="translate(147.802734 0)"/>
     <use xlink:href="#DejaVuSans-69" transform="translate(211.279297 0)"/>
     <use xlink:href="#DejaVuSans-61" transform="translate(239.0625 0)"/>
     <use xlink:href="#DejaVuSans-50" transform="translate(300.341797 0)"/>
     <use xlink:href="#DejaVuSans-69" transform="translate(358.394531 0)"/>
     <use xlink:href="#DejaVuSans-70" transform="translate(386.177734 0)"/>
     <use xlink:href="#DejaVuSans-65" transform="translate(449.654297 0)"/>
    </g>
    <!-- FaceMesh -->
    <g style="fill: #111111" transform="translate(260.551781 64.902688) scale(0.082 -0.082)">
     <defs>
      <path id="DejaVuSans-68" d="M 3513 2113 
L 3513 0 
L 2938 0 
L 2938 2094 
Q 2938 2591 2744 2837 
Q 2550 3084 2163 3084 
Q 1697 3084 1428 2787 
Q 1159 2491 1159 1978 
L 1159 0 
L 581 0 
L 581 4863 
L 1159 4863 
L 1159 2956 
Q 1366 3272 1645 3428 
Q 1925 3584 2291 3584 
Q 2894 3584 3203 3211 
Q 3513 2838 3513 2113 
z
" transform="scale(0.015625)"/>
     </defs>
     <use xlink:href="#DejaVuSans-46"/>
     <use xlink:href="#DejaVuSans-61" transform="translate(48.394531 0)"/>
     <use xlink:href="#DejaVuSans-63" transform="translate(109.673828 0)"/>
     <use xlink:href="#DejaVuSans-65" transform="translate(164.654297 0)"/>
     <use xlink:href="#DejaVuSans-4d" transform="translate(226.177734 0)"/>
     <use xlink:href="#DejaVuSans-65" transform="translate(312.457031 0)"/>
     <use xlink:href="#DejaVuSans-73" transform="translate(373.980469 0)"/>
     <use xlink:href="#DejaVuSans-68" transform="translate(426.080078 0)"/>
    </g>
    <!-- 478 x 3 -->
    <g style="fill: #111111" transform="translate(265.15275 73.960279) scale(0.082 -0.082)">
     <defs>
      <path id="DejaVuSans-34" d="M 2419 4116 
L 825 1625 
L 2419 1625 
L 2419 4116 
z
M 2253 4666 
L 3047 4666 
L 3047 1625 
L 3713 1625 
L 3713 1100 
L 3047 1100 
L 3047 0 
L 2419 0 
L 2419 1100 
L 313 1100 
L 313 1709 
L 2253 4666 
z
" transform="scale(0.015625)"/>
      <path id="DejaVuSans-37" d="M 525 4666 
L 3525 4666 
L 3525 4397 
L 1831 0 
L 1172 0 
L 2766 4134 
L 525 4134 
L 525 4666 
z
" transform="scale(0.015625)"/>
      <path id="DejaVuSans-38" d="M 2034 2216 
Q 1584 2216 1326 1975 
Q 1069 1734 1069 1313 
Q 1069 891 1326 650 
Q 1584 409 2034 409 
Q 2484 409 2743 651 
Q 3003 894 3003 1313 
Q 3003 1734 2745 1975 
Q 2488 2216 2034 2216 
z
M 1403 2484 
Q 997 2584 770 2862 
Q 544 3141 544 3541 
Q 544 4100 942 4425 
Q 1341 4750 2034 4750 
Q 2731 4750 3128 4425 
Q 3525 4100 3525 3541 
Q 3525 3141 3298 2862 
Q 3072 2584 2669 2484 
Q 3125 2378 3379 2068 
Q 3634 1759 3634 1313 
Q 3634 634 3220 271 
Q 2806 -91 2034 -91 
Q 1263 -91 848 271 
Q 434 634 434 1313 
Q 434 1759 690 2068 
Q 947 2378 1403 2484 
z
M 1172 3481 
Q 1172 3119 1398 2916 
Q 1625 2713 2034 2713 
Q 2441 2713 2670 2916 
Q 2900 3119 2900 3481 
Q 2900 3844 2670 4047 
Q 2441 4250 2034 4250 
Q 1625 4250 1398 4047 
Q 1172 3844 1172 3481 
z
" transform="scale(0.015625)"/>
      <path id="DejaVuSans-33" d="M 2597 2516 
Q 3050 2419 3304 2112 
Q 3559 1806 3559 1356 
Q 3559 666 3084 287 
Q 2609 -91 1734 -91 
Q 1441 -91 1130 -33 
Q 819 25 488 141 
L 488 750 
Q 750 597 1062 519 
Q 1375 441 1716 441 
Q 2309 441 2620 675 
Q 2931 909 2931 1356 
Q 2931 1769 2642 2001 
Q 2353 2234 1838 2234 
L 1294 2234 
L 1294 2753 
L 1863 2753 
Q 2328 2753 2575 2939 
Q 2822 3125 2822 3475 
Q 2822 3834 2567 4026 
Q 2313 4219 1838 4219 
Q 1578 4219 1281 4162 
Q 984 4106 628 3988 
L 628 4550 
Q 988 4650 1302 4700 
Q 1616 4750 1894 4750 
Q 2613 4750 3031 4423 
Q 3450 4097 3450 3541 
Q 3450 3153 3228 2886 
Q 3006 2619 2597 2516 
z
" transform="scale(0.015625)"/>
     </defs>
     <use xlink:href="#DejaVuSans-34"/>
     <use xlink:href="#DejaVuSans-37" transform="translate(63.623047 0)"/>
     <use xlink:href="#DejaVuSans-38" transform="translate(127.246094 0)"/>
     <use xlink:href="#DejaVuSans-20" transform="translate(190.869141 0)"/>
     <use xlink:href="#DejaVuSans-78" transform="translate(222.65625 0)"/>
     <use xlink:href="#DejaVuSans-20" transform="translate(281.835938 0)"/>
     <use xlink:href="#DejaVuSans-33" transform="translate(313.623047 0)"/>
    </g>
   </g>
   <g id="text_5">
    <!-- Occ CNN -->
    <g style="fill: #111111" transform="translate(262.583203 122.373096) scale(0.082 -0.082)">
     <defs>
      <path id="DejaVuSans-43" d="M 4122 4306 
L 4122 3641 
Q 3803 3938 3442 4084 
Q 3081 4231 2675 4231 
Q 1875 4231 1450 3742 
Q 1025 3253 1025 2328 
Q 1025 1406 1450 917 
Q 1875 428 2675 428 
Q 3081 428 3442 575 
Q 3803 722 4122 1019 
L 4122 359 
Q 3791 134 3420 21 
Q 3050 -91 2638 -91 
Q 1578 -91 968 557 
Q 359 1206 359 2328 
Q 359 3453 968 4101 
Q 1578 4750 2638 4750 
Q 3056 4750 3426 4639 
Q 3797 4528 4122 4306 
z
" transform="scale(0.015625)"/>
      <path id="DejaVuSans-4e" d="M 628 4666 
L 1478 4666 
L 3547 763 
L 3547 4666 
L 4159 4666 
L 4159 0 
L 3309 0 
L 1241 3903 
L 1241 0 
L 628 0 
L 628 4666 
z
" transform="scale(0.015625)"/>
     </defs>
     <use xlink:href="#DejaVuSans-4f"/>
     <use xlink:href="#DejaVuSans-63" transform="translate(78.710938 0)"/>
     <use xlink:href="#DejaVuSans-63" transform="translate(133.691406 0)"/>
     <use xlink:href="#DejaVuSans-20" transform="translate(188.671875 0)"/>
     <use xlink:href="#DejaVuSans-43" transform="translate(220.458984 0)"/>
     <use xlink:href="#DejaVuSans-4e" transform="translate(290.283203 0)"/>
     <use xlink:href="#DejaVuSans-4e" transform="translate(365.087891 0)"/>
    </g>
    <!-- visibility + valid -->
    <g style="fill: #111111" transform="translate(247.863563 131.430688) scale(0.082 -0.082)">
     <defs>
      <path id="DejaVuSans-76" d="M 191 3500 
L 800 3500 
L 1894 563 
L 2988 3500 
L 3597 3500 
L 2284 0 
L 1503 0 
L 191 3500 
z
" transform="scale(0.015625)"/>
      <path id="DejaVuSans-6c" d="M 603 4863 
L 1178 4863 
L 1178 0 
L 603 0 
L 603 4863 
z
" transform="scale(0.015625)"/>
      <path id="DejaVuSans-74" d="M 1172 4494 
L 1172 3500 
L 2356 3500 
L 2356 3053 
L 1172 3053 
L 1172 1153 
Q 1172 725 1289 603 
Q 1406 481 1766 481 
L 2356 481 
L 2356 0 
L 1766 0 
Q 1100 0 847 248 
Q 594 497 594 1153 
L 594 3053 
L 172 3053 
L 172 3500 
L 594 3500 
L 594 4494 
L 1172 4494 
z
" transform="scale(0.015625)"/>
     </defs>
     <use xlink:href="#DejaVuSans-76"/>
     <use xlink:href="#DejaVuSans-69" transform="translate(59.179688 0)"/>
     <use xlink:href="#DejaVuSans-73" transform="translate(86.962891 0)"/>
     <use xlink:href="#DejaVuSans-69" transform="translate(139.0625 0)"/>
     <use xlink:href="#DejaVuSans-62" transform="translate(166.845703 0)"/>
     <use xlink:href="#DejaVuSans-69" transform="translate(230.322266 0)"/>
     <use xlink:href="#DejaVuSans-6c" transform="translate(258.105469 0)"/>
     <use xlink:href="#DejaVuSans-69" transform="translate(285.888672 0)"/>
     <use xlink:href="#DejaVuSans-74" transform="translate(313.671875 0)"/>
     <use xlink:href="#DejaVuSans-79" transform="translate(352.880859 0)"/>
     <use xlink:href="#DejaVuSans-20" transform="translate(412.060547 0)"/>
     <use xlink:href="#DejaVuSans-2b" transform="translate(443.847656 0)"/>
     <use xlink:href="#DejaVuSans-20" transform="translate(527.636719 0)"/>
     <use xlink:href="#DejaVuSans-76" transform="translate(559.423828 0)"/>
     <use xlink:href="#DejaVuSans-61" transform="translate(618.603516 0)"/>
     <use xlink:href="#DejaVuSans-6c" transform="translate(679.882812 0)"/>
     <use xlink:href="#DejaVuSans-69" transform="translate(707.666016 0)"/>
     <use xlink:href="#DejaVuSans-64" transform="translate(735.449219 0)"/>
    </g>
    <!-- 5-D feature -->
    <g style="fill: #111111" transform="translate(257.271781 140.488279) scale(0.082 -0.082)">
     <defs>
      <path id="DejaVuSans-35" d="M 691 4666 
L 3169 4666 
L 3169 4134 
L 1269 4134 
L 1269 2991 
Q 1406 3038 1543 3061 
Q 1681 3084 1819 3084 
Q 2600 3084 3056 2656 
Q 3513 2228 3513 1497 
Q 3513 744 3044 326 
Q 2575 -91 1722 -91 
Q 1428 -91 1123 -41 
Q 819 9 494 109 
L 494 744 
Q 775 591 1075 516 
Q 1375 441 1709 441 
Q 2250 441 2565 725 
Q 2881 1009 2881 1497 
Q 2881 1984 2565 2268 
Q 2250 2553 1709 2553 
Q 1456 2553 1204 2497 
Q 953 2441 691 2322 
L 691 4666 
z
" transform="scale(0.015625)"/>
      <path id="DejaVuSans-44" d="M 1259 4147 
L 1259 519 
L 2022 519 
Q 2988 519 3436 956 
Q 3884 1394 3884 2338 
Q 3884 3275 3436 3711 
Q 2988 4147 2022 4147 
L 1259 4147 
z
M 628 4666 
L 1925 4666 
Q 3281 4666 3915 4102 
Q 4550 3538 4550 2338 
Q 4550 1131 3912 565 
Q 3275 0 1925 0 
L 628 0 
L 628 4666 
z
" transform="scale(0.015625)"/>
      <path id="DejaVuSans-75" d="M 544 1381 
L 544 3500 
L 1119 3500 
L 1119 1403 
Q 1119 906 1312 657 
Q 1506 409 1894 409 
Q 2359 409 2629 706 
Q 2900 1003 2900 1516 
L 2900 3500 
L 3475 3500 
L 3475 0 
L 2900 0 
L 2900 538 
Q 2691 219 2414 64 
Q 2138 -91 1772 -91 
Q 1169 -91 856 284 
Q 544 659 544 1381 
z
M 1991 3584 
L 1991 3584 
z
" transform="scale(0.015625)"/>
     </defs>
     <use xlink:href="#DejaVuSans-35"/>
     <use xlink:href="#DejaVuSans-2d" transform="translate(63.623047 0)"/>
     <use xlink:href="#DejaVuSans-44" transform="translate(99.707031 0)"/>
     <use xlink:href="#DejaVuSans-20" transform="translate(176.708984 0)"/>
     <use xlink:href="#DejaVuSans-66" transform="translate(208.496094 0)"/>
     <use xlink:href="#DejaVuSans-65" transform="translate(243.701172 0)"/>
     <use xlink:href="#DejaVuSans-61" transform="translate(305.224609 0)"/>
     <use xlink:href="#DejaVuSans-74" transform="translate(366.503906 0)"/>
     <use xlink:href="#DejaVuSans-75" transform="translate(405.712891 0)"/>
     <use xlink:href="#DejaVuSans-72" transform="translate(469.091797 0)"/>
     <use xlink:href="#DejaVuSans-65" transform="translate(507.955078 0)"/>
    </g>
   </g>
   <g id="text_6">
    <!-- ORFormer + HGNet -->
    <g style="fill: #111111" transform="translate(370.38675 56.010825) scale(0.08 -0.08)">
     <defs>
      <path id="DejaVuSans-48" d="M 628 4666 
L 1259 4666 
L 1259 2753 
L 3553 2753 
L 3553 4666 
L 4184 4666 
L 4184 0 
L 3553 0 
L 3553 2222 
L 1259 2222 
L 1259 0 
L 628 0 
L 628 4666 
z
" transform="scale(0.015625)"/>
     </defs>
     <use xlink:href="#DejaVuSans-4f"/>
     <use xlink:href="#DejaVuSans-52" transform="translate(78.710938 0)"/>
     <use xlink:href="#DejaVuSans-46" transform="translate(148.193359 0)"/>
     <use xlink:href="#DejaVuSans-6f" transform="translate(202.087891 0)"/>
     <use xlink:href="#DejaVuSans-72" transform="translate(263.269531 0)"/>
     <use xlink:href="#DejaVuSans-6d" transform="translate(302.632812 0)"/>
     <use xlink:href="#DejaVuSans-65" transform="translate(400.044922 0)"/>
     <use xlink:href="#DejaVuSans-72" transform="translate(461.568359 0)"/>
     <use xlink:href="#DejaVuSans-20" transform="translate(502.681641 0)"/>
     <use xlink:href="#DejaVuSans-2b" transform="translate(534.46875 0)"/>
     <use xlink:href="#DejaVuSans-20" transform="translate(618.257812 0)"/>
     <use xlink:href="#DejaVuSans-48" transform="translate(650.044922 0)"/>
     <use xlink:href="#DejaVuSans-47" transform="translate(725.240234 0)"/>
     <use xlink:href="#DejaVuSans-4e" transform="translate(802.730469 0)"/>
     <use xlink:href="#DejaVuSans-65" transform="translate(877.535156 0)"/>
     <use xlink:href="#DejaVuSans-74" transform="translate(939.058594 0)"/>
    </g>
    <!-- conditional -->
    <g style="fill: #111111" transform="translate(387.461125 64.8475) scale(0.08 -0.08)">
     <defs>
      <path id="DejaVuSans-6e" d="M 3513 2113 
L 3513 0 
L 2938 0 
L 2938 2094 
Q 2938 2591 2744 2837 
Q 2550 3084 2163 3084 
Q 1697 3084 1428 2787 
Q 1159 2491 1159 1978 
L 1159 0 
L 581 0 
L 581 3500 
L 1159 3500 
L 1159 2956 
Q 1366 3272 1645 3428 
Q 1925 3584 2291 3584 
Q 2894 3584 3203 3211 
Q 3513 2838 3513 2113 
z
" transform="scale(0.015625)"/>
     </defs>
     <use xlink:href="#DejaVuSans-63"/>
     <use xlink:href="#DejaVuSans-6f" transform="translate(54.980469 0)"/>
     <use xlink:href="#DejaVuSans-6e" transform="translate(116.162109 0)"/>
     <use xlink:href="#DejaVuSans-64" transform="translate(179.541016 0)"/>
     <use xlink:href="#DejaVuSans-69" transform="translate(243.017578 0)"/>
     <use xlink:href="#DejaVuSans-74" transform="translate(270.800781 0)"/>
     <use xlink:href="#DejaVuSans-69" transform="translate(310.009766 0)"/>
     <use xlink:href="#DejaVuSans-6f" transform="translate(337.792969 0)"/>
     <use xlink:href="#DejaVuSans-6e" transform="translate(398.974609 0)"/>
     <use xlink:href="#DejaVuSans-61" transform="translate(462.353516 0)"/>
     <use xlink:href="#DejaVuSans-6c" transform="translate(523.632812 0)"/>
    </g>
    <!-- restoration -->
    <g style="fill: #111111" transform="translate(387.6455 73.684175) scale(0.08 -0.08)">
     <use xlink:href="#DejaVuSans-72"/>
     <use xlink:href="#DejaVuSans-65" transform="translate(38.863281 0)"/>
     <use xlink:href="#DejaVuSans-73" transform="translate(100.386719 0)"/>
     <use xlink:href="#DejaVuSans-74" transform="translate(152.486328 0)"/>
     <use xlink:href="#DejaVuSans-6f" transform="translate(191.695312 0)"/>
     <use xlink:href="#DejaVuSans-72" transform="translate(252.876953 0)"/>
     <use xlink:href="#DejaVuSans-61" transform="translate(293.990234 0)"/>
     <use xlink:href="#DejaVuSans-74" transform="translate(355.269531 0)"/>
     <use xlink:href="#DejaVuSans-69" transform="translate(394.478516 0)"/>
     <use xlink:href="#DejaVuSans-6f" transform="translate(422.261719 0)"/>
     <use xlink:href="#DejaVuSans-6e" transform="translate(483.443359 0)"/>
    </g>
   </g>
   <g id="text_7">
    <!-- Occ-gated -->
    <g style="fill: #111111" transform="translate(515.098125 91.40956) scale(0.081 -0.081)">
     <use xlink:href="#DejaVuSans-4f"/>
     <use xlink:href="#DejaVuSans-63" transform="translate(78.710938 0)"/>
     <use xlink:href="#DejaVuSans-63" transform="translate(133.691406 0)"/>
     <use xlink:href="#DejaVuSans-2d" transform="translate(188.671875 0)"/>
     <use xlink:href="#DejaVuSans-67" transform="translate(224.755859 0)"/>
     <use xlink:href="#DejaVuSans-61" transform="translate(288.232422 0)"/>
     <use xlink:href="#DejaVuSans-74" transform="translate(349.511719 0)"/>
     <use xlink:href="#DejaVuSans-65" transform="translate(388.720703 0)"/>
     <use xlink:href="#DejaVuSans-64" transform="translate(450.244141 0)"/>
    </g>
    <!-- FaceMesh merge -->
    <g style="fill: #111111" transform="translate(501.700219 100.356694) scale(0.081 -0.081)">
     <use xlink:href="#DejaVuSans-46"/>
     <use xlink:href="#DejaVuSans-61" transform="translate(48.394531 0)"/>
     <use xlink:href="#DejaVuSans-63" transform="translate(109.673828 0)"/>
     <use xlink:href="#DejaVuSans-65" transform="translate(164.654297 0)"/>
     <use xlink:href="#DejaVuSans-4d" transform="translate(226.177734 0)"/>
     <use xlink:href="#DejaVuSans-65" transform="translate(312.457031 0)"/>
     <use xlink:href="#DejaVuSans-73" transform="translate(373.980469 0)"/>
     <use xlink:href="#DejaVuSans-68" transform="translate(426.080078 0)"/>
     <use xlink:href="#DejaVuSans-20" transform="translate(489.458984 0)"/>
     <use xlink:href="#DejaVuSans-6d" transform="translate(521.246094 0)"/>
     <use xlink:href="#DejaVuSans-65" transform="translate(618.658203 0)"/>
     <use xlink:href="#DejaVuSans-72" transform="translate(680.181641 0)"/>
     <use xlink:href="#DejaVuSans-67" transform="translate(719.544922 0)"/>
     <use xlink:href="#DejaVuSans-65" transform="translate(783.021484 0)"/>
    </g>
    <!-- raw or restored -->
    <g style="fill: #111111" transform="translate(504.850359 109.303827) scale(0.081 -0.081)">
     <defs>
      <path id="DejaVuSans-77" d="M 269 3500 
L 844 3500 
L 1563 769 
L 2278 3500 
L 2956 3500 
L 3675 769 
L 4391 3500 
L 4966 3500 
L 4050 0 
L 3372 0 
L 2619 2869 
L 1863 0 
L 1184 0 
L 269 3500 
z
" transform="scale(0.015625)"/>
     </defs>
     <use xlink:href="#DejaVuSans-72"/>
     <use xlink:href="#DejaVuSans-61" transform="translate(41.113281 0)"/>
     <use xlink:href="#DejaVuSans-77" transform="translate(102.392578 0)"/>
     <use xlink:href="#DejaVuSans-20" transform="translate(184.179688 0)"/>
     <use xlink:href="#DejaVuSans-6f" transform="translate(215.966797 0)"/>
     <use xlink:href="#DejaVuSans-72" transform="translate(277.148438 0)"/>
     <use xlink:href="#DejaVuSans-20" transform="translate(318.261719 0)"/>
     <use xlink:href="#DejaVuSans-72" transform="translate(350.048828 0)"/>
     <use xlink:href="#DejaVuSans-65" transform="translate(388.912109 0)"/>
     <use xlink:href="#DejaVuSans-73" transform="translate(450.435547 0)"/>
     <use xlink:href="#DejaVuSans-74" transform="translate(502.535156 0)"/>
     <use xlink:href="#DejaVuSans-6f" transform="translate(541.744141 0)"/>
     <use xlink:href="#DejaVuSans-72" transform="translate(602.925781 0)"/>
     <use xlink:href="#DejaVuSans-65" transform="translate(641.789062 0)"/>
     <use xlink:href="#DejaVuSans-64" transform="translate(703.3125 0)"/>
    </g>
   </g>
   <g id="text_8">
    <!-- YOLO-Pose -->
    <g style="fill: #111111" transform="translate(141.811859 248.20495) scale(0.086 -0.086)">
     <use xlink:href="#DejaVuSans-59"/>
     <use xlink:href="#DejaVuSans-4f" transform="translate(55.583984 0)"/>
     <use xlink:href="#DejaVuSans-4c" transform="translate(134.294922 0)"/>
     <use xlink:href="#DejaVuSans-4f" transform="translate(186.382812 0)"/>
     <use xlink:href="#DejaVuSans-2d" transform="translate(267.84375 0)"/>
     <use xlink:href="#DejaVuSans-50" transform="translate(303.927734 0)"/>
     <use xlink:href="#DejaVuSans-6f" transform="translate(360.605469 0)"/>
     <use xlink:href="#DejaVuSans-73" transform="translate(421.787109 0)"/>
     <use xlink:href="#DejaVuSans-65" transform="translate(473.886719 0)"/>
    </g>
    <!-- COCO17 skeleton -->
    <g style="fill: #111111" transform="translate(127.119297 257.704375) scale(0.086 -0.086)">
     <defs>
      <path id="DejaVuSans-31" d="M 794 531 
L 1825 531 
L 1825 4091 
L 703 3866 
L 703 4441 
L 1819 4666 
L 2450 4666 
L 2450 531 
L 3481 531 
L 3481 0 
L 794 0 
L 794 531 
z
" transform="scale(0.015625)"/>
      <path id="DejaVuSans-6b" d="M 581 4863 
L 1159 4863 
L 1159 1991 
L 2875 3500 
L 3609 3500 
L 1753 1863 
L 3688 0 
L 2938 0 
L 1159 1709 
L 1159 0 
L 581 0 
L 581 4863 
z
" transform="scale(0.015625)"/>
     </defs>
     <use xlink:href="#DejaVuSans-43"/>
     <use xlink:href="#DejaVuSans-4f" transform="translate(69.824219 0)"/>
     <use xlink:href="#DejaVuSans-43" transform="translate(148.535156 0)"/>
     <use xlink:href="#DejaVuSans-4f" transform="translate(218.359375 0)"/>
     <use xlink:href="#DejaVuSans-31" transform="translate(297.070312 0)"/>
     <use xlink:href="#DejaVuSans-37" transform="translate(360.693359 0)"/>
     <use xlink:href="#DejaVuSans-20" transform="translate(424.316406 0)"/>
     <use xlink:href="#DejaVuSans-73" transform="translate(456.103516 0)"/>
     <use xlink:href="#DejaVuSans-6b" transform="translate(508.203125 0)"/>
     <use xlink:href="#DejaVuSans-65" transform="translate(562.488281 0)"/>
     <use xlink:href="#DejaVuSans-6c" transform="translate(624.011719 0)"/>
     <use xlink:href="#DejaVuSans-65" transform="translate(651.794922 0)"/>
     <use xlink:href="#DejaVuSans-74" transform="translate(713.318359 0)"/>
     <use xlink:href="#DejaVuSans-6f" transform="translate(752.527344 0)"/>
     <use xlink:href="#DejaVuSans-6e" transform="translate(813.708984 0)"/>
    </g>
   </g>
   <g id="text_9">
    <!-- Pose preprocessing -->
    <g style="fill: #111111" transform="translate(248.042383 248.398398) scale(0.079 -0.079)">
     <use xlink:href="#DejaVuSans-50"/>
     <use xlink:href="#DejaVuSans-6f" transform="translate(56.677734 0)"/>
     <use xlink:href="#DejaVuSans-73" transform="translate(117.859375 0)"/>
     <use xlink:href="#DejaVuSans-65" transform="translate(169.958984 0)"/>
     <use xlink:href="#DejaVuSans-20" transform="translate(231.482422 0)"/>
     <use xlink:href="#DejaVuSans-70" transform="translate(263.269531 0)"/>
     <use xlink:href="#DejaVuSans-72" transform="translate(326.746094 0)"/>
     <use xlink:href="#DejaVuSans-65" transform="translate(365.609375 0)"/>
     <use xlink:href="#DejaVuSans-70" transform="translate(427.132812 0)"/>
     <use xlink:href="#DejaVuSans-72" transform="translate(490.609375 0)"/>
     <use xlink:href="#DejaVuSans-6f" transform="translate(529.472656 0)"/>
     <use xlink:href="#DejaVuSans-63" transform="translate(590.654297 0)"/>
     <use xlink:href="#DejaVuSans-65" transform="translate(645.634766 0)"/>
     <use xlink:href="#DejaVuSans-73" transform="translate(707.158203 0)"/>
     <use xlink:href="#DejaVuSans-73" transform="translate(759.257812 0)"/>
     <use xlink:href="#DejaVuSans-69" transform="translate(811.357422 0)"/>
     <use xlink:href="#DejaVuSans-6e" transform="translate(839.140625 0)"/>
     <use xlink:href="#DejaVuSans-67" transform="translate(902.519531 0)"/>
    </g>
    <!-- xy + bone + vel + conf -->
    <g style="fill: #111111" transform="translate(239.855391 257.124615) scale(0.079 -0.079)">
     <use xlink:href="#DejaVuSans-78"/>
     <use xlink:href="#DejaVuSans-79" transform="translate(59.179688 0)"/>
     <use xlink:href="#DejaVuSans-20" transform="translate(118.359375 0)"/>
     <use xlink:href="#DejaVuSans-2b" transform="translate(150.146484 0)"/>
     <use xlink:href="#DejaVuSans-20" transform="translate(233.935547 0)"/>
     <use xlink:href="#DejaVuSans-62" transform="translate(265.722656 0)"/>
     <use xlink:href="#DejaVuSans-6f" transform="translate(329.199219 0)"/>
     <use xlink:href="#DejaVuSans-6e" transform="translate(390.380859 0)"/>
     <use xlink:href="#DejaVuSans-65" transform="translate(453.759766 0)"/>
     <use xlink:href="#DejaVuSans-20" transform="translate(515.283203 0)"/>
     <use xlink:href="#DejaVuSans-2b" transform="translate(547.070312 0)"/>
     <use xlink:href="#DejaVuSans-20" transform="translate(630.859375 0)"/>
     <use xlink:href="#DejaVuSans-76" transform="translate(662.646484 0)"/>
     <use xlink:href="#DejaVuSans-65" transform="translate(721.826172 0)"/>
     <use xlink:href="#DejaVuSans-6c" transform="translate(783.349609 0)"/>
     <use xlink:href="#DejaVuSans-20" transform="translate(811.132812 0)"/>
     <use xlink:href="#DejaVuSans-2b" transform="translate(842.919922 0)"/>
     <use xlink:href="#DejaVuSans-20" transform="translate(926.708984 0)"/>
     <use xlink:href="#DejaVuSans-63" transform="translate(958.496094 0)"/>
     <use xlink:href="#DejaVuSans-6f" transform="translate(1013.476562 0)"/>
     <use xlink:href="#DejaVuSans-6e" transform="translate(1074.658203 0)"/>
     <use xlink:href="#DejaVuSans-66" transform="translate(1138.037109 0)"/>
    </g>
   </g>
   <g id="text_10">
    <!-- Temporal buffer -->
    <g style="fill: #111111" transform="translate(633.084484 167.81695) scale(0.086 -0.086)">
     <defs>
      <path id="DejaVuSans-54" d="M -19 4666 
L 3928 4666 
L 3928 4134 
L 2272 4134 
L 2272 0 
L 1638 0 
L 1638 4134 
L -19 4134 
L -19 4666 
z
" transform="scale(0.015625)"/>
     </defs>
     <use xlink:href="#DejaVuSans-54"/>
     <use xlink:href="#DejaVuSans-65" transform="translate(44.083984 0)"/>
     <use xlink:href="#DejaVuSans-6d" transform="translate(105.607422 0)"/>
     <use xlink:href="#DejaVuSans-70" transform="translate(203.019531 0)"/>
     <use xlink:href="#DejaVuSans-6f" transform="translate(266.496094 0)"/>
     <use xlink:href="#DejaVuSans-72" transform="translate(327.677734 0)"/>
     <use xlink:href="#DejaVuSans-61" transform="translate(368.791016 0)"/>
     <use xlink:href="#DejaVuSans-6c" transform="translate(430.070312 0)"/>
     <use xlink:href="#DejaVuSans-20" transform="translate(457.853516 0)"/>
     <use xlink:href="#DejaVuSans-62" transform="translate(489.640625 0)"/>
     <use xlink:href="#DejaVuSans-75" transform="translate(553.117188 0)"/>
     <use xlink:href="#DejaVuSans-66" transform="translate(616.496094 0)"/>
     <use xlink:href="#DejaVuSans-66" transform="translate(651.701172 0)"/>
     <use xlink:href="#DejaVuSans-65" transform="translate(686.90625 0)"/>
     <use xlink:href="#DejaVuSans-72" transform="translate(748.429688 0)"/>
    </g>
    <!-- T = 48 frames -->
    <g style="fill: #111111" transform="translate(636.242969 177.316375) scale(0.086 -0.086)">
     <defs>
      <path id="DejaVuSans-3d" d="M 678 2906 
L 4684 2906 
L 4684 2381 
L 678 2381 
L 678 2906 
z
M 678 1631 
L 4684 1631 
L 4684 1100 
L 678 1100 
L 678 1631 
z
" transform="scale(0.015625)"/>
     </defs>
     <use xlink:href="#DejaVuSans-54"/>
     <use xlink:href="#DejaVuSans-20" transform="translate(61.083984 0)"/>
     <use xlink:href="#DejaVuSans-3d" transform="translate(92.871094 0)"/>
     <use xlink:href="#DejaVuSans-20" transform="translate(176.660156 0)"/>
     <use xlink:href="#DejaVuSans-34" transform="translate(208.447266 0)"/>
     <use xlink:href="#DejaVuSans-38" transform="translate(272.070312 0)"/>
     <use xlink:href="#DejaVuSans-20" transform="translate(335.693359 0)"/>
     <use xlink:href="#DejaVuSans-66" transform="translate(367.480469 0)"/>
     <use xlink:href="#DejaVuSans-72" transform="translate(402.685547 0)"/>
     <use xlink:href="#DejaVuSans-61" transform="translate(443.798828 0)"/>
     <use xlink:href="#DejaVuSans-6d" transform="translate(505.078125 0)"/>
     <use xlink:href="#DejaVuSans-65" transform="translate(602.490234 0)"/>
     <use xlink:href="#DejaVuSans-73" transform="translate(664.013672 0)"/>
    </g>
   </g>
   <g id="text_11">
    <!-- DMS preprocessing -->
    <g style="fill: #111111" transform="translate(738.973234 167.81695) scale(0.086 -0.086)">
     <defs>
      <path id="DejaVuSans-53" d="M 3425 4513 
L 3425 3897 
Q 3066 4069 2747 4153 
Q 2428 4238 2131 4238 
Q 1616 4238 1336 4038 
Q 1056 3838 1056 3469 
Q 1056 3159 1242 3001 
Q 1428 2844 1947 2747 
L 2328 2669 
Q 3034 2534 3370 2195 
Q 3706 1856 3706 1288 
Q 3706 609 3251 259 
Q 2797 -91 1919 -91 
Q 1588 -91 1214 -16 
Q 841 59 441 206 
L 441 856 
Q 825 641 1194 531 
Q 1563 422 1919 422 
Q 2459 422 2753 634 
Q 3047 847 3047 1241 
Q 3047 1584 2836 1778 
Q 2625 1972 2144 2069 
L 1759 2144 
Q 1053 2284 737 2584 
Q 422 2884 422 3419 
Q 422 4038 858 4394 
Q 1294 4750 2059 4750 
Q 2388 4750 2728 4690 
Q 3069 4631 3425 4513 
z
" transform="scale(0.015625)"/>
     </defs>
     <use xlink:href="#DejaVuSans-44"/>
     <use xlink:href="#DejaVuSans-4d" transform="translate(77.001953 0)"/>
     <use xlink:href="#DejaVuSans-53" transform="translate(163.28125 0)"/>
     <use xlink:href="#DejaVuSans-20" transform="translate(226.757812 0)"/>
     <use xlink:href="#DejaVuSans-70" transform="translate(258.544922 0)"/>
     <use xlink:href="#DejaVuSans-72" transform="translate(322.021484 0)"/>
     <use xlink:href="#DejaVuSans-65" transform="translate(360.884766 0)"/>
     <use xlink:href="#DejaVuSans-70" transform="translate(422.408203 0)"/>
     <use xlink:href="#DejaVuSans-72" transform="translate(485.884766 0)"/>
     <use xlink:href="#DejaVuSans-6f" transform="translate(524.748047 0)"/>
     <use xlink:href="#DejaVuSans-63" transform="translate(585.929688 0)"/>
     <use xlink:href="#DejaVuSans-65" transform="translate(640.910156 0)"/>
     <use xlink:href="#DejaVuSans-73" transform="translate(702.433594 0)"/>
     <use xlink:href="#DejaVuSans-73" transform="translate(754.533203 0)"/>
     <use xlink:href="#DejaVuSans-69" transform="translate(806.632812 0)"/>
     <use xlink:href="#DejaVuSans-6e" transform="translate(834.416016 0)"/>
     <use xlink:href="#DejaVuSans-67" transform="translate(897.794922 0)"/>
    </g>
    <!-- pose, face, occ -->
    <g style="fill: #111111" transform="translate(748.077141 177.316375) scale(0.086 -0.086)">
     <defs>
      <path id="DejaVuSans-2c" d="M 750 794 
L 1409 794 
L 1409 256 
L 897 -744 
L 494 -744 
L 750 256 
L 750 794 
z
" transform="scale(0.015625)"/>
     </defs>
     <use xlink:href="#DejaVuSans-70"/>
     <use xlink:href="#DejaVuSans-6f" transform="translate(63.476562 0)"/>
     <use xlink:href="#DejaVuSans-73" transform="translate(124.658203 0)"/>
     <use xlink:href="#DejaVuSans-65" transform="translate(176.757812 0)"/>
     <use xlink:href="#DejaVuSans-2c" transform="translate(238.28125 0)"/>
     <use xlink:href="#DejaVuSans-20" transform="translate(270.068359 0)"/>
     <use xlink:href="#DejaVuSans-66" transform="translate(301.855469 0)"/>
     <use xlink:href="#DejaVuSans-61" transform="translate(337.060547 0)"/>
     <use xlink:href="#DejaVuSans-63" transform="translate(398.339844 0)"/>
     <use xlink:href="#DejaVuSans-65" transform="translate(453.320312 0)"/>
     <use xlink:href="#DejaVuSans-2c" transform="translate(514.84375 0)"/>
     <use xlink:href="#DejaVuSans-20" transform="translate(546.630859 0)"/>
     <use xlink:href="#DejaVuSans-6f" transform="translate(578.417969 0)"/>
     <use xlink:href="#DejaVuSans-63" transform="translate(639.599609 0)"/>
     <use xlink:href="#DejaVuSans-63" transform="translate(694.580078 0)"/>
    </g>
   </g>
   <g id="text_12">
    <!-- Model4 DMS classifier -->
    <g style="fill: #111111" transform="translate(878.465484 163.730154) scale(0.078 -0.078)">
     <use xlink:href="#DejaVuSans-4d"/>
     <use xlink:href="#DejaVuSans-6f" transform="translate(86.279297 0)"/>
     <use xlink:href="#DejaVuSans-64" transform="translate(147.460938 0)"/>
     <use xlink:href="#DejaVuSans-65" transform="translate(210.9375 0)"/>
     <use xlink:href="#DejaVuSans-6c" transform="translate(272.460938 0)"/>
     <use xlink:href="#DejaVuSans-34" transform="translate(300.244141 0)"/>
     <use xlink:href="#DejaVuSans-20" transform="translate(363.867188 0)"/>
     <use xlink:href="#DejaVuSans-44" transform="translate(395.654297 0)"/>
     <use xlink:href="#DejaVuSans-4d" transform="translate(472.65625 0)"/>
     <use xlink:href="#DejaVuSans-53" transform="translate(558.935547 0)"/>
     <use xlink:href="#DejaVuSans-20" transform="translate(622.412109 0)"/>
     <use xlink:href="#DejaVuSans-63" transform="translate(654.199219 0)"/>
     <use xlink:href="#DejaVuSans-6c" transform="translate(709.179688 0)"/>
     <use xlink:href="#DejaVuSans-61" transform="translate(736.962891 0)"/>
     <use xlink:href="#DejaVuSans-73" transform="translate(798.242188 0)"/>
     <use xlink:href="#DejaVuSans-73" transform="translate(850.341797 0)"/>
     <use xlink:href="#DejaVuSans-69" transform="translate(902.441406 0)"/>
     <use xlink:href="#DejaVuSans-66" transform="translate(930.224609 0)"/>
     <use xlink:href="#DejaVuSans-69" transform="translate(965.429688 0)"/>
     <use xlink:href="#DejaVuSans-65" transform="translate(993.212891 0)"/>
     <use xlink:href="#DejaVuSans-72" transform="translate(1054.736328 0)"/>
    </g>
    <!-- PoseBranch + FaceBranch -->
    <g style="fill: #111111" transform="translate(870.0945 172.345912) scale(0.078 -0.078)">
     <use xlink:href="#DejaVuSans-50"/>
     <use xlink:href="#DejaVuSans-6f" transform="translate(56.677734 0)"/>
     <use xlink:href="#DejaVuSans-73" transform="translate(117.859375 0)"/>
     <use xlink:href="#DejaVuSans-65" transform="translate(169.958984 0)"/>
     <use xlink:href="#DejaVuSans-42" transform="translate(231.482422 0)"/>
     <use xlink:href="#DejaVuSans-72" transform="translate(300.085938 0)"/>
     <use xlink:href="#DejaVuSans-61" transform="translate(341.199219 0)"/>
     <use xlink:href="#DejaVuSans-6e" transform="translate(402.478516 0)"/>
     <use xlink:href="#DejaVuSans-63" transform="translate(465.857422 0)"/>
     <use xlink:href="#DejaVuSans-68" transform="translate(520.837891 0)"/>
     <use xlink:href="#DejaVuSans-20" transform="translate(584.216797 0)"/>
     <use xlink:href="#DejaVuSans-2b" transform="translate(616.003906 0)"/>
     <use xlink:href="#DejaVuSans-20" transform="translate(699.792969 0)"/>
     <use xlink:href="#DejaVuSans-46" transform="translate(731.580078 0)"/>
     <use xlink:href="#DejaVuSans-61" transform="translate(779.974609 0)"/>
     <use xlink:href="#DejaVuSans-63" transform="translate(841.253906 0)"/>
     <use xlink:href="#DejaVuSans-65" transform="translate(896.234375 0)"/>
     <use xlink:href="#DejaVuSans-42" transform="translate(957.757812 0)"/>
     <use xlink:href="#DejaVuSans-72" transform="translate(1026.361328 0)"/>
     <use xlink:href="#DejaVuSans-61" transform="translate(1067.474609 0)"/>
     <use xlink:href="#DejaVuSans-6e" transform="translate(1128.753906 0)"/>
     <use xlink:href="#DejaVuSans-63" transform="translate(1192.132812 0)"/>
     <use xlink:href="#DejaVuSans-68" transform="translate(1247.113281 0)"/>
    </g>
    <!-- explicit region-scalar mask gate -->
    <g style="fill: #111111" transform="translate(858.790594 180.961671) scale(0.078 -0.078)">
     <use xlink:href="#DejaVuSans-65"/>
     <use xlink:href="#DejaVuSans-78" transform="translate(59.773438 0)"/>
     <use xlink:href="#DejaVuSans-70" transform="translate(118.953125 0)"/>
     <use xlink:href="#DejaVuSans-6c" transform="translate(182.429688 0)"/>
     <use xlink:href="#DejaVuSans-69" transform="translate(210.212891 0)"/>
     <use xlink:href="#DejaVuSans-63" transform="translate(237.996094 0)"/>
     <use xlink:href="#DejaVuSans-69" transform="translate(292.976562 0)"/>
     <use xlink:href="#DejaVuSans-74" transform="translate(320.759766 0)"/>
     <use xlink:href="#DejaVuSans-20" transform="translate(359.96875 0)"/>
     <use xlink:href="#DejaVuSans-72" transform="translate(391.755859 0)"/>
     <use xlink:href="#DejaVuSans-65" transform="translate(430.619141 0)"/>
     <use xlink:href="#DejaVuSans-67" transform="translate(492.142578 0)"/>
     <use xlink:href="#DejaVuSans-69" transform="translate(555.619141 0)"/>
     <use xlink:href="#DejaVuSans-6f" transform="translate(583.402344 0)"/>
     <use xlink:href="#DejaVuSans-6e" transform="translate(644.583984 0)"/>
     <use xlink:href="#DejaVuSans-2d" transform="translate(707.962891 0)"/>
     <use xlink:href="#DejaVuSans-73" transform="translate(744.046875 0)"/>
     <use xlink:href="#DejaVuSans-63" transform="translate(796.146484 0)"/>
     <use xlink:href="#DejaVuSans-61" transform="translate(851.126953 0)"/>
     <use xlink:href="#DejaVuSans-6c" transform="translate(912.40625 0)"/>
     <use xlink:href="#DejaVuSans-61" transform="translate(940.189453 0)"/>
     <use xlink:href="#DejaVuSans-72" transform="translate(1001.46875 0)"/>
     <use xlink:href="#DejaVuSans-20" transform="translate(1042.582031 0)"/>
     <use xlink:href="#DejaVuSans-6d" transform="translate(1074.369141 0)"/>
     <use xlink:href="#DejaVuSans-61" transform="translate(1171.78125 0)"/>
     <use xlink:href="#DejaVuSans-73" transform="translate(1233.060547 0)"/>
     <use xlink:href="#DejaVuSans-6b" transform="translate(1285.160156 0)"/>
     <use xlink:href="#DejaVuSans-20" transform="translate(1343.070312 0)"/>
     <use xlink:href="#DejaVuSans-67" transform="translate(1374.857422 0)"/>
     <use xlink:href="#DejaVuSans-61" transform="translate(1438.333984 0)"/>
     <use xlink:href="#DejaVuSans-74" transform="translate(1499.613281 0)"/>
     <use xlink:href="#DejaVuSans-65" transform="translate(1538.822266 0)"/>
    </g>
   </g>
   <g id="text_13">
    <!-- Heads -->
    <g style="fill: #111111" transform="translate(909.008437 249.194643) scale(0.076 -0.076)">
     <use xlink:href="#DejaVuSans-48"/>
     <use xlink:href="#DejaVuSans-65" transform="translate(75.195312 0)"/>
     <use xlink:href="#DejaVuSans-61" transform="translate(136.71875 0)"/>
     <use xlink:href="#DejaVuSans-64" transform="translate(197.998047 0)"/>
     <use xlink:href="#DejaVuSans-73" transform="translate(261.474609 0)"/>
    </g>
    <!-- action -->
    <g style="fill: #111111" transform="translate(909.228125 257.589484) scale(0.076 -0.076)">
     <use xlink:href="#DejaVuSans-61"/>
     <use xlink:href="#DejaVuSans-63" transform="translate(61.279297 0)"/>
     <use xlink:href="#DejaVuSans-74" transform="translate(116.259766 0)"/>
     <use xlink:href="#DejaVuSans-69" transform="translate(155.46875 0)"/>
     <use xlink:href="#DejaVuSans-6f" transform="translate(183.251953 0)"/>
     <use xlink:href="#DejaVuSans-6e" transform="translate(244.433594 0)"/>
    </g>
    <!-- gaze -->
    <g style="fill: #111111" transform="translate(911.851312 265.984325) scale(0.076 -0.076)">
     <defs>
      <path id="DejaVuSans-7a" d="M 353 3500 
L 3084 3500 
L 3084 2975 
L 922 459 
L 3084 459 
L 3084 0 
L 275 0 
L 275 525 
L 2438 3041 
L 353 3041 
L 353 3500 
z
" transform="scale(0.015625)"/>
     </defs>
     <use xlink:href="#DejaVuSans-67"/>
     <use xlink:href="#DejaVuSans-61" transform="translate(63.476562 0)"/>
     <use xlink:href="#DejaVuSans-7a" transform="translate(124.755859 0)"/>
     <use xlink:href="#DejaVuSans-65" transform="translate(177.246094 0)"/>
    </g>
    <!-- hands -->
    <g style="fill: #111111" transform="translate(909.387844 274.379166) scale(0.076 -0.076)">
     <use xlink:href="#DejaVuSans-68"/>
     <use xlink:href="#DejaVuSans-61" transform="translate(63.378906 0)"/>
     <use xlink:href="#DejaVuSans-6e" transform="translate(124.658203 0)"/>
     <use xlink:href="#DejaVuSans-64" transform="translate(188.037109 0)"/>
     <use xlink:href="#DejaVuSans-73" transform="translate(251.513672 0)"/>
    </g>
    <!-- talk -->
    <g style="fill: #111111" transform="translate(913.850469 282.774008) scale(0.076 -0.076)">
     <use xlink:href="#DejaVuSans-74"/>
     <use xlink:href="#DejaVuSans-61" transform="translate(39.208984 0)"/>
     <use xlink:href="#DejaVuSans-6c" transform="translate(100.488281 0)"/>
     <use xlink:href="#DejaVuSans-6b" transform="translate(128.271484 0)"/>
    </g>
   </g>
   <g id="text_14">
    <!-- Prediction -->
    <g style="fill: #111111" transform="translate(966.807727 257.506619) scale(0.077 -0.077)">
     <use xlink:href="#DejaVuSans-50"/>
     <use xlink:href="#DejaVuSans-72" transform="translate(58.552734 0)"/>
     <use xlink:href="#DejaVuSans-65" transform="translate(97.416016 0)"/>
     <use xlink:href="#DejaVuSans-64" transform="translate(158.939453 0)"/>
     <use xlink:href="#DejaVuSans-69" transform="translate(222.416016 0)"/>
     <use xlink:href="#DejaVuSans-63" transform="translate(250.199219 0)"/>
     <use xlink:href="#DejaVuSans-74" transform="translate(305.179688 0)"/>
     <use xlink:href="#DejaVuSans-69" transform="translate(344.388672 0)"/>
     <use xlink:href="#DejaVuSans-6f" transform="translate(372.171875 0)"/>
     <use xlink:href="#DejaVuSans-6e" transform="translate(433.353516 0)"/>
    </g>
    <!-- JSONL -->
    <g style="fill: #111111" transform="translate(974.295977 266.011919) scale(0.077 -0.077)">
     <defs>
      <path id="DejaVuSans-4a" d="M 628 4666 
L 1259 4666 
L 1259 325 
Q 1259 -519 939 -900 
Q 619 -1281 -91 -1281 
L -331 -1281 
L -331 -750 
L -134 -750 
Q 284 -750 456 -515 
Q 628 -281 628 325 
L 628 4666 
z
" transform="scale(0.015625)"/>
     </defs>
     <use xlink:href="#DejaVuSans-4a"/>
     <use xlink:href="#DejaVuSans-53" transform="translate(29.492188 0)"/>
     <use xlink:href="#DejaVuSans-4f" transform="translate(92.96875 0)"/>
     <use xlink:href="#DejaVuSans-4e" transform="translate(171.679688 0)"/>
     <use xlink:href="#DejaVuSans-4c" transform="translate(246.484375 0)"/>
    </g>
    <!-- prob/conf -->
    <g style="fill: #111111" transform="translate(967.627055 274.517218) scale(0.077 -0.077)">
     <defs>
      <path id="DejaVuSans-2f" d="M 1625 4666 
L 2156 4666 
L 531 -594 
L 0 -594 
L 1625 4666 
z
" transform="scale(0.015625)"/>
     </defs>
     <use xlink:href="#DejaVuSans-70"/>
     <use xlink:href="#DejaVuSans-72" transform="translate(63.476562 0)"/>
     <use xlink:href="#DejaVuSans-6f" transform="translate(102.339844 0)"/>
     <use xlink:href="#DejaVuSans-62" transform="translate(163.521484 0)"/>
     <use xlink:href="#DejaVuSans-2f" transform="translate(226.998047 0)"/>
     <use xlink:href="#DejaVuSans-63" transform="translate(260.689453 0)"/>
     <use xlink:href="#DejaVuSans-6f" transform="translate(315.669922 0)"/>
     <use xlink:href="#DejaVuSans-6e" transform="translate(376.851562 0)"/>
     <use xlink:href="#DejaVuSans-66" transform="translate(440.230469 0)"/>
    </g>
   </g>
   <g id="text_15">
    <!-- if occluded -->
    <g style="fill: #333333" transform="translate(325.694766 93.677562) scale(0.07 -0.07)">
     <use xlink:href="#DejaVuSans-69"/>
     <use xlink:href="#DejaVuSans-66" transform="translate(27.783203 0)"/>
     <use xlink:href="#DejaVuSans-20" transform="translate(62.988281 0)"/>
     <use xlink:href="#DejaVuSans-6f" transform="translate(94.775391 0)"/>
     <use xlink:href="#DejaVuSans-63" transform="translate(155.957031 0)"/>
     <use xlink:href="#DejaVuSans-63" transform="translate(210.9375 0)"/>
     <use xlink:href="#DejaVuSans-6c" transform="translate(265.917969 0)"/>
     <use xlink:href="#DejaVuSans-75" transform="translate(293.701172 0)"/>
     <use xlink:href="#DejaVuSans-64" transform="translate(357.080078 0)"/>
     <use xlink:href="#DejaVuSans-65" transform="translate(420.556641 0)"/>
     <use xlink:href="#DejaVuSans-64" transform="translate(482.080078 0)"/>
    </g>
   </g>
   <g id="text_16">
    <!-- Face stream -->
    <g style="fill: #222222" transform="translate(26.73 41.5728) scale(0.092 -0.092)">
     <defs>
      <path id="DejaVuSans-Bold-46" d="M 588 4666 
L 3834 4666 
L 3834 3756 
L 1791 3756 
L 1791 2888 
L 3713 2888 
L 3713 1978 
L 1791 1978 
L 1791 0 
L 588 0 
L 588 4666 
z
" transform="scale(0.015625)"/>
      <path id="DejaVuSans-Bold-61" d="M 2106 1575 
Q 1756 1575 1579 1456 
Q 1403 1338 1403 1106 
Q 1403 894 1545 773 
Q 1688 653 1941 653 
Q 2256 653 2472 879 
Q 2688 1106 2688 1447 
L 2688 1575 
L 2106 1575 
z
M 3816 1997 
L 3816 0 
L 2688 0 
L 2688 519 
Q 2463 200 2181 54 
Q 1900 -91 1497 -91 
Q 953 -91 614 226 
Q 275 544 275 1050 
Q 275 1666 698 1953 
Q 1122 2241 2028 2241 
L 2688 2241 
L 2688 2328 
Q 2688 2594 2478 2717 
Q 2269 2841 1825 2841 
Q 1466 2841 1156 2769 
Q 847 2697 581 2553 
L 581 3406 
Q 941 3494 1303 3539 
Q 1666 3584 2028 3584 
Q 2975 3584 3395 3211 
Q 3816 2838 3816 1997 
z
" transform="scale(0.015625)"/>
      <path id="DejaVuSans-Bold-63" d="M 3366 3391 
L 3366 2478 
Q 3138 2634 2908 2709 
Q 2678 2784 2431 2784 
Q 1963 2784 1702 2511 
Q 1441 2238 1441 1747 
Q 1441 1256 1702 982 
Q 1963 709 2431 709 
Q 2694 709 2930 787 
Q 3166 866 3366 1019 
L 3366 103 
Q 3103 6 2833 -42 
Q 2563 -91 2291 -91 
Q 1344 -91 809 395 
Q 275 881 275 1747 
Q 275 2613 809 3098 
Q 1344 3584 2291 3584 
Q 2566 3584 2833 3536 
Q 3100 3488 3366 3391 
z
" transform="scale(0.015625)"/>
      <path id="DejaVuSans-Bold-65" d="M 4031 1759 
L 4031 1441 
L 1416 1441 
Q 1456 1047 1700 850 
Q 1944 653 2381 653 
Q 2734 653 3104 758 
Q 3475 863 3866 1075 
L 3866 213 
Q 3469 63 3072 -14 
Q 2675 -91 2278 -91 
Q 1328 -91 801 392 
Q 275 875 275 1747 
Q 275 2603 792 3093 
Q 1309 3584 2216 3584 
Q 3041 3584 3536 3087 
Q 4031 2591 4031 1759 
z
M 2881 2131 
Q 2881 2450 2695 2645 
Q 2509 2841 2209 2841 
Q 1884 2841 1681 2658 
Q 1478 2475 1428 2131 
L 2881 2131 
z
" transform="scale(0.015625)"/>
      <path id="DejaVuSans-Bold-20" transform="scale(0.015625)"/>
      <path id="DejaVuSans-Bold-73" d="M 3272 3391 
L 3272 2541 
Q 2913 2691 2578 2766 
Q 2244 2841 1947 2841 
Q 1628 2841 1473 2761 
Q 1319 2681 1319 2516 
Q 1319 2381 1436 2309 
Q 1553 2238 1856 2203 
L 2053 2175 
Q 2913 2066 3209 1816 
Q 3506 1566 3506 1031 
Q 3506 472 3093 190 
Q 2681 -91 1863 -91 
Q 1516 -91 1145 -36 
Q 775 19 384 128 
L 384 978 
Q 719 816 1070 734 
Q 1422 653 1784 653 
Q 2113 653 2278 743 
Q 2444 834 2444 1013 
Q 2444 1163 2330 1236 
Q 2216 1309 1875 1350 
L 1678 1375 
Q 931 1469 631 1722 
Q 331 1975 331 2491 
Q 331 3047 712 3315 
Q 1094 3584 1881 3584 
Q 2191 3584 2531 3537 
Q 2872 3491 3272 3391 
z
" transform="scale(0.015625)"/>
      <path id="DejaVuSans-Bold-74" d="M 1759 4494 
L 1759 3500 
L 2913 3500 
L 2913 2700 
L 1759 2700 
L 1759 1216 
Q 1759 972 1856 886 
Q 1953 800 2241 800 
L 2816 800 
L 2816 0 
L 1856 0 
Q 1194 0 917 276 
Q 641 553 641 1216 
L 641 2700 
L 84 2700 
L 84 3500 
L 641 3500 
L 641 4494 
L 1759 4494 
z
" transform="scale(0.015625)"/>
      <path id="DejaVuSans-Bold-72" d="M 3138 2547 
Q 2991 2616 2845 2648 
Q 2700 2681 2553 2681 
Q 2122 2681 1889 2404 
Q 1656 2128 1656 1613 
L 1656 0 
L 538 0 
L 538 3500 
L 1656 3500 
L 1656 2925 
Q 1872 3269 2151 3426 
Q 2431 3584 2822 3584 
Q 2878 3584 2943 3579 
Q 3009 3575 3134 3559 
L 3138 2547 
z
" transform="scale(0.015625)"/>
      <path id="DejaVuSans-Bold-6d" d="M 3781 2919 
Q 3994 3244 4286 3414 
Q 4578 3584 4928 3584 
Q 5531 3584 5847 3212 
Q 6163 2841 6163 2131 
L 6163 0 
L 5038 0 
L 5038 1825 
Q 5041 1866 5042 1909 
Q 5044 1953 5044 2034 
Q 5044 2406 4934 2573 
Q 4825 2741 4581 2741 
Q 4263 2741 4089 2478 
Q 3916 2216 3909 1719 
L 3909 0 
L 2784 0 
L 2784 1825 
Q 2784 2406 2684 2573 
Q 2584 2741 2328 2741 
Q 2006 2741 1831 2477 
Q 1656 2213 1656 1722 
L 1656 0 
L 531 0 
L 531 3500 
L 1656 3500 
L 1656 2988 
Q 1863 3284 2130 3434 
Q 2397 3584 2719 3584 
Q 3081 3584 3359 3409 
Q 3638 3234 3781 2919 
z
" transform="scale(0.015625)"/>
     </defs>
     <use xlink:href="#DejaVuSans-Bold-46"/>
     <use xlink:href="#DejaVuSans-Bold-61" transform="translate(62.435547 0)"/>
     <use xlink:href="#DejaVuSans-Bold-63" transform="translate(129.916016 0)"/>
     <use xlink:href="#DejaVuSans-Bold-65" transform="translate(189.193359 0)"/>
     <use xlink:href="#DejaVuSans-Bold-20" transform="translate(257.015625 0)"/>
     <use xlink:href="#DejaVuSans-Bold-73" transform="translate(291.830078 0)"/>
     <use xlink:href="#DejaVuSans-Bold-74" transform="translate(351.351562 0)"/>
     <use xlink:href="#DejaVuSans-Bold-72" transform="translate(399.154297 0)"/>
     <use xlink:href="#DejaVuSans-Bold-65" transform="translate(448.470703 0)"/>
     <use xlink:href="#DejaVuSans-Bold-61" transform="translate(516.292969 0)"/>
     <use xlink:href="#DejaVuSans-Bold-6d" transform="translate(583.773438 0)"/>
    </g>
   </g>
   <g id="text_17">
    <!-- Body stream -->
    <g style="fill: #222222" transform="translate(26.73 189.0432) scale(0.092 -0.092)">
     <defs>
      <path id="DejaVuSans-Bold-42" d="M 2456 2859 
Q 2741 2859 2887 2984 
Q 3034 3109 3034 3353 
Q 3034 3594 2887 3720 
Q 2741 3847 2456 3847 
L 1791 3847 
L 1791 2859 
L 2456 2859 
z
M 2497 819 
Q 2859 819 3042 972 
Q 3225 1125 3225 1434 
Q 3225 1738 3044 1889 
Q 2863 2041 2497 2041 
L 1791 2041 
L 1791 819 
L 2497 819 
z
M 3616 2497 
Q 4003 2384 4215 2081 
Q 4428 1778 4428 1338 
Q 4428 663 3972 331 
Q 3516 0 2584 0 
L 588 0 
L 588 4666 
L 2394 4666 
Q 3366 4666 3802 4372 
Q 4238 4078 4238 3431 
Q 4238 3091 4078 2852 
Q 3919 2613 3616 2497 
z
" transform="scale(0.015625)"/>
      <path id="DejaVuSans-Bold-6f" d="M 2203 2784 
Q 1831 2784 1636 2517 
Q 1441 2250 1441 1747 
Q 1441 1244 1636 976 
Q 1831 709 2203 709 
Q 2569 709 2762 976 
Q 2956 1244 2956 1747 
Q 2956 2250 2762 2517 
Q 2569 2784 2203 2784 
z
M 2203 3584 
Q 3106 3584 3614 3096 
Q 4122 2609 4122 1747 
Q 4122 884 3614 396 
Q 3106 -91 2203 -91 
Q 1297 -91 786 396 
Q 275 884 275 1747 
Q 275 2609 786 3096 
Q 1297 3584 2203 3584 
z
" transform="scale(0.015625)"/>
      <path id="DejaVuSans-Bold-64" d="M 2919 2988 
L 2919 4863 
L 4044 4863 
L 4044 0 
L 2919 0 
L 2919 506 
Q 2688 197 2409 53 
Q 2131 -91 1766 -91 
Q 1119 -91 703 423 
Q 288 938 288 1747 
Q 288 2556 703 3070 
Q 1119 3584 1766 3584 
Q 2128 3584 2408 3439 
Q 2688 3294 2919 2988 
z
M 2181 722 
Q 2541 722 2730 984 
Q 2919 1247 2919 1747 
Q 2919 2247 2730 2509 
Q 2541 2772 2181 2772 
Q 1825 2772 1636 2509 
Q 1447 2247 1447 1747 
Q 1447 1247 1636 984 
Q 1825 722 2181 722 
z
" transform="scale(0.015625)"/>
      <path id="DejaVuSans-Bold-79" d="M 78 3500 
L 1197 3500 
L 2138 1125 
L 2938 3500 
L 4056 3500 
L 2584 -331 
Q 2363 -916 2067 -1148 
Q 1772 -1381 1288 -1381 
L 641 -1381 
L 641 -647 
L 991 -647 
Q 1275 -647 1404 -556 
Q 1534 -466 1606 -231 
L 1638 -134 
L 78 3500 
z
" transform="scale(0.015625)"/>
     </defs>
     <use xlink:href="#DejaVuSans-Bold-42"/>
     <use xlink:href="#DejaVuSans-Bold-6f" transform="translate(76.220703 0)"/>
     <use xlink:href="#DejaVuSans-Bold-64" transform="translate(144.921875 0)"/>
     <use xlink:href="#DejaVuSans-Bold-79" transform="translate(216.503906 0)"/>
     <use xlink:href="#DejaVuSans-Bold-20" transform="translate(281.689453 0)"/>
     <use xlink:href="#DejaVuSans-Bold-73" transform="translate(316.503906 0)"/>
     <use xlink:href="#DejaVuSans-Bold-74" transform="translate(376.025391 0)"/>
     <use xlink:href="#DejaVuSans-Bold-72" transform="translate(423.828125 0)"/>
     <use xlink:href="#DejaVuSans-Bold-65" transform="translate(473.144531 0)"/>
     <use xlink:href="#DejaVuSans-Bold-61" transform="translate(540.966797 0)"/>
     <use xlink:href="#DejaVuSans-Bold-6d" transform="translate(608.447266 0)"/>
    </g>
   </g>
   <g id="text_18">
    <!-- Windowed multi-modal inference -->
    <g style="fill: #222222" transform="translate(623.79 116.4168) scale(0.092 -0.092)">
     <defs>
      <path id="DejaVuSans-Bold-57" d="M 191 4666 
L 1344 4666 
L 2150 1275 
L 2950 4666 
L 4109 4666 
L 4909 1275 
L 5716 4666 
L 6859 4666 
L 5759 0 
L 4372 0 
L 3525 3547 
L 2688 0 
L 1300 0 
L 191 4666 
z
" transform="scale(0.015625)"/>
      <path id="DejaVuSans-Bold-69" d="M 538 3500 
L 1656 3500 
L 1656 0 
L 538 0 
L 538 3500 
z
M 538 4863 
L 1656 4863 
L 1656 3950 
L 538 3950 
L 538 4863 
z
" transform="scale(0.015625)"/>
      <path id="DejaVuSans-Bold-6e" d="M 4056 2131 
L 4056 0 
L 2931 0 
L 2931 347 
L 2931 1631 
Q 2931 2084 2911 2256 
Q 2891 2428 2841 2509 
Q 2775 2619 2662 2680 
Q 2550 2741 2406 2741 
Q 2056 2741 1856 2470 
Q 1656 2200 1656 1722 
L 1656 0 
L 538 0 
L 538 3500 
L 1656 3500 
L 1656 2988 
Q 1909 3294 2193 3439 
Q 2478 3584 2822 3584 
Q 3428 3584 3742 3212 
Q 4056 2841 4056 2131 
z
" transform="scale(0.015625)"/>
      <path id="DejaVuSans-Bold-77" d="M 225 3500 
L 1313 3500 
L 1900 1088 
L 2491 3500 
L 3425 3500 
L 4013 1113 
L 4603 3500 
L 5691 3500 
L 4769 0 
L 3547 0 
L 2956 2406 
L 2369 0 
L 1147 0 
L 225 3500 
z
" transform="scale(0.015625)"/>
      <path id="DejaVuSans-Bold-75" d="M 500 1363 
L 500 3500 
L 1625 3500 
L 1625 3150 
Q 1625 2866 1622 2436 
Q 1619 2006 1619 1863 
Q 1619 1441 1641 1255 
Q 1663 1069 1716 984 
Q 1784 875 1895 815 
Q 2006 756 2150 756 
Q 2500 756 2700 1025 
Q 2900 1294 2900 1772 
L 2900 3500 
L 4019 3500 
L 4019 0 
L 2900 0 
L 2900 506 
Q 2647 200 2364 54 
Q 2081 -91 1741 -91 
Q 1134 -91 817 281 
Q 500 653 500 1363 
z
" transform="scale(0.015625)"/>
      <path id="DejaVuSans-Bold-6c" d="M 538 4863 
L 1656 4863 
L 1656 0 
L 538 0 
L 538 4863 
z
" transform="scale(0.015625)"/>
      <path id="DejaVuSans-Bold-2d" d="M 347 2297 
L 2309 2297 
L 2309 1388 
L 347 1388 
L 347 2297 
z
" transform="scale(0.015625)"/>
      <path id="DejaVuSans-Bold-66" d="M 2841 4863 
L 2841 4128 
L 2222 4128 
Q 1984 4128 1890 4042 
Q 1797 3956 1797 3744 
L 1797 3500 
L 2753 3500 
L 2753 2700 
L 1797 2700 
L 1797 0 
L 678 0 
L 678 2700 
L 122 2700 
L 122 3500 
L 678 3500 
L 678 3744 
Q 678 4316 997 4589 
Q 1316 4863 1984 4863 
L 2841 4863 
z
" transform="scale(0.015625)"/>
     </defs>
     <use xlink:href="#DejaVuSans-Bold-57"/>
     <use xlink:href="#DejaVuSans-Bold-69" transform="translate(110.302734 0)"/>
     <use xlink:href="#DejaVuSans-Bold-6e" transform="translate(144.580078 0)"/>
     <use xlink:href="#DejaVuSans-Bold-64" transform="translate(215.771484 0)"/>
     <use xlink:href="#DejaVuSans-Bold-6f" transform="translate(287.353516 0)"/>
     <use xlink:href="#DejaVuSans-Bold-77" transform="translate(356.054688 0)"/>
     <use xlink:href="#DejaVuSans-Bold-65" transform="translate(448.4375 0)"/>
     <use xlink:href="#DejaVuSans-Bold-64" transform="translate(516.259766 0)"/>
     <use xlink:href="#DejaVuSans-Bold-20" transform="translate(587.841797 0)"/>
     <use xlink:href="#DejaVuSans-Bold-6d" transform="translate(622.65625 0)"/>
     <use xlink:href="#DejaVuSans-Bold-75" transform="translate(726.855469 0)"/>
     <use xlink:href="#DejaVuSans-Bold-6c" transform="translate(798.046875 0)"/>
     <use xlink:href="#DejaVuSans-Bold-74" transform="translate(832.324219 0)"/>
     <use xlink:href="#DejaVuSans-Bold-69" transform="translate(880.126953 0)"/>
     <use xlink:href="#DejaVuSans-Bold-2d" transform="translate(914.404297 0)"/>
     <use xlink:href="#DejaVuSans-Bold-6d" transform="translate(955.908203 0)"/>
     <use xlink:href="#DejaVuSans-Bold-6f" transform="translate(1060.107422 0)"/>
     <use xlink:href="#DejaVuSans-Bold-64" transform="translate(1128.808594 0)"/>
     <use xlink:href="#DejaVuSans-Bold-61" transform="translate(1200.390625 0)"/>
     <use xlink:href="#DejaVuSans-Bold-6c" transform="translate(1267.871094 0)"/>
     <use xlink:href="#DejaVuSans-Bold-20" transform="translate(1302.148438 0)"/>
     <use xlink:href="#DejaVuSans-Bold-69" transform="translate(1336.962891 0)"/>
     <use xlink:href="#DejaVuSans-Bold-6e" transform="translate(1371.240234 0)"/>
     <use xlink:href="#DejaVuSans-Bold-66" transform="translate(1442.431641 0)"/>
     <use xlink:href="#DejaVuSans-Bold-65" transform="translate(1485.9375 0)"/>
     <use xlink:href="#DejaVuSans-Bold-72" transform="translate(1553.759766 0)"/>
     <use xlink:href="#DejaVuSans-Bold-65" transform="translate(1603.076172 0)"/>
     <use xlink:href="#DejaVuSans-Bold-6e" transform="translate(1670.898438 0)"/>
     <use xlink:href="#DejaVuSans-Bold-63" transform="translate(1742.089844 0)"/>
     <use xlink:href="#DejaVuSans-Bold-65" transform="translate(1801.367188 0)"/>
    </g>
   </g>
   <g id="text_19">
    <!-- Failure policy: missing body/face detections are replaced by zero skeleton/FaceMesh and neutral occlusion features; inference continues once the 48-frame buffer is ready. -->
    <g style="fill: #444444" transform="translate(26.73 327.6432) scale(0.071 -0.071)">
     <defs>
      <path id="DejaVuSans-3a" d="M 750 794 
L 1409 794 
L 1409 0 
L 750 0 
L 750 794 
z
M 750 3309 
L 1409 3309 
L 1409 2516 
L 750 2516 
L 750 3309 
z
" transform="scale(0.015625)"/>
      <path id="DejaVuSans-3b" d="M 750 3309 
L 1409 3309 
L 1409 2516 
L 750 2516 
L 750 3309 
z
M 750 794 
L 1409 794 
L 1409 256 
L 897 -744 
L 494 -744 
L 750 256 
L 750 794 
z
" transform="scale(0.015625)"/>
      <path id="DejaVuSans-2e" d="M 684 794 
L 1344 794 
L 1344 0 
L 684 0 
L 684 794 
z
" transform="scale(0.015625)"/>
     </defs>
     <use xlink:href="#DejaVuSans-46"/>
     <use xlink:href="#DejaVuSans-61" transform="translate(48.394531 0)"/>
     <use xlink:href="#DejaVuSans-69" transform="translate(109.673828 0)"/>
     <use xlink:href="#DejaVuSans-6c" transform="translate(137.457031 0)"/>
     <use xlink:href="#DejaVuSans-75" transform="translate(165.240234 0)"/>
     <use xlink:href="#DejaVuSans-72" transform="translate(228.619141 0)"/>
     <use xlink:href="#DejaVuSans-65" transform="translate(267.482422 0)"/>
     <use xlink:href="#DejaVuSans-20" transform="translate(329.005859 0)"/>
     <use xlink:href="#DejaVuSans-70" transform="translate(360.792969 0)"/>
     <use xlink:href="#DejaVuSans-6f" transform="translate(424.269531 0)"/>
     <use xlink:href="#DejaVuSans-6c" transform="translate(485.451172 0)"/>
     <use xlink:href="#DejaVuSans-69" transform="translate(513.234375 0)"/>
     <use xlink:href="#DejaVuSans-63" transform="translate(541.017578 0)"/>
     <use xlink:href="#DejaVuSans-79" transform="translate(595.998047 0)"/>
     <use xlink:href="#DejaVuSans-3a" transform="translate(647.927734 0)"/>
     <use xlink:href="#DejaVuSans-20" transform="translate(681.619141 0)"/>
     <use xlink:href="#DejaVuSans-6d" transform="translate(713.40625 0)"/>
     <use xlink:href="#DejaVuSans-69" transform="translate(810.818359 0)"/>
     <use xlink:href="#DejaVuSans-73" transform="translate(838.601562 0)"/>
     <use xlink:href="#DejaVuSans-73" transform="translate(890.701172 0)"/>
     <use xlink:href="#DejaVuSans-69" transform="translate(942.800781 0)"/>
     <use xlink:href="#DejaVuSans-6e" transform="translate(970.583984 0)"/>
     <use xlink:href="#DejaVuSans-67" transform="translate(1033.962891 0)"/>
     <use xlink:href="#DejaVuSans-20" transform="translate(1097.439453 0)"/>
     <use xlink:href="#DejaVuSans-62" transform="translate(1129.226562 0)"/>
     <use xlink:href="#DejaVuSans-6f" transform="translate(1192.703125 0)"/>
     <use xlink:href="#DejaVuSans-64" transform="translate(1253.884766 0)"/>
     <use xlink:href="#DejaVuSans-79" transform="translate(1317.361328 0)"/>
     <use xlink:href="#DejaVuSans-2f" transform="translate(1376.541016 0)"/>
     <use xlink:href="#DejaVuSans-66" transform="translate(1410.232422 0)"/>
     <use xlink:href="#DejaVuSans-61" transform="translate(1445.4375 0)"/>
     <use xlink:href="#DejaVuSans-63" transform="translate(1506.716797 0)"/>
     <use xlink:href="#DejaVuSans-65" transform="translate(1561.697266 0)"/>
     <use xlink:href="#DejaVuSans-20" transform="translate(1623.220703 0)"/>
     <use xlink:href="#DejaVuSans-64" transform="translate(1655.007812 0)"/>
     <use xlink:href="#DejaVuSans-65" transform="translate(1718.484375 0)"/>
     <use xlink:href="#DejaVuSans-74" transform="translate(1780.007812 0)"/>
     <use xlink:href="#DejaVuSans-65" transform="translate(1819.216797 0)"/>
     <use xlink:href="#DejaVuSans-63" transform="translate(1880.740234 0)"/>
     <use xlink:href="#DejaVuSans-74" transform="translate(1935.720703 0)"/>
     <use xlink:href="#DejaVuSans-69" transform="translate(1974.929688 0)"/>
     <use xlink:href="#DejaVuSans-6f" transform="translate(2002.712891 0)"/>
     <use xlink:href="#DejaVuSans-6e" transform="translate(2063.894531 0)"/>
     <use xlink:href="#DejaVuSans-73" transform="translate(2127.273438 0)"/>
     <use xlink:href="#DejaVuSans-20" transform="translate(2179.373047 0)"/>
     <use xlink:href="#DejaVuSans-61" transform="translate(2211.160156 0)"/>
     <use xlink:href="#DejaVuSans-72" transform="translate(2272.439453 0)"/>
     <use xlink:href="#DejaVuSans-65" transform="translate(2311.302734 0)"/>
     <use xlink:href="#DejaVuSans-20" transform="translate(2372.826172 0)"/>
     <use xlink:href="#DejaVuSans-72" transform="translate(2404.613281 0)"/>
     <use xlink:href="#DejaVuSans-65" transform="translate(2443.476562 0)"/>
     <use xlink:href="#DejaVuSans-70" transform="translate(2505 0)"/>
     <use xlink:href="#DejaVuSans-6c" transform="translate(2568.476562 0)"/>
     <use xlink:href="#DejaVuSans-61" transform="translate(2596.259766 0)"/>
     <use xlink:href="#DejaVuSans-63" transform="translate(2657.539062 0)"/>
     <use xlink:href="#DejaVuSans-65" transform="translate(2712.519531 0)"/>
     <use xlink:href="#DejaVuSans-64" transform="translate(2774.042969 0)"/>
     <use xlink:href="#DejaVuSans-20" transform="translate(2837.519531 0)"/>
     <use xlink:href="#DejaVuSans-62" transform="translate(2869.306641 0)"/>
     <use xlink:href="#DejaVuSans-79" transform="translate(2932.783203 0)"/>
     <use xlink:href="#DejaVuSans-20" transform="translate(2991.962891 0)"/>
     <use xlink:href="#DejaVuSans-7a" transform="translate(3023.75 0)"/>
     <use xlink:href="#DejaVuSans-65" transform="translate(3076.240234 0)"/>
     <use xlink:href="#DejaVuSans-72" transform="translate(3137.763672 0)"/>
     <use xlink:href="#DejaVuSans-6f" transform="translate(3176.626953 0)"/>
     <use xlink:href="#DejaVuSans-20" transform="translate(3237.808594 0)"/>
     <use xlink:href="#DejaVuSans-73" transform="translate(3269.595703 0)"/>
     <use xlink:href="#DejaVuSans-6b" transform="translate(3321.695312 0)"/>
     <use xlink:href="#DejaVuSans-65" transform="translate(3375.980469 0)"/>
     <use xlink:href="#DejaVuSans-6c" transform="translate(3437.503906 0)"/>
     <use xlink:href="#DejaVuSans-65" transform="translate(3465.287109 0)"/>
     <use xlink:href="#DejaVuSans-74" transform="translate(3526.810547 0)"/>
     <use xlink:href="#DejaVuSans-6f" transform="translate(3566.019531 0)"/>
     <use xlink:href="#DejaVuSans-6e" transform="translate(3627.201172 0)"/>
     <use xlink:href="#DejaVuSans-2f" transform="translate(3690.580078 0)"/>
     <use xlink:href="#DejaVuSans-46" transform="translate(3724.271484 0)"/>
     <use xlink:href="#DejaVuSans-61" transform="translate(3772.666016 0)"/>
     <use xlink:href="#DejaVuSans-63" transform="translate(3833.945312 0)"/>
     <use xlink:href="#DejaVuSans-65" transform="translate(3888.925781 0)"/>
     <use xlink:href="#DejaVuSans-4d" transform="translate(3950.449219 0)"/>
     <use xlink:href="#DejaVuSans-65" transform="translate(4036.728516 0)"/>
     <use xlink:href="#DejaVuSans-73" transform="translate(4098.251953 0)"/>
     <use xlink:href="#DejaVuSans-68" transform="translate(4150.351562 0)"/>
     <use xlink:href="#DejaVuSans-20" transform="translate(4213.730469 0)"/>
     <use xlink:href="#DejaVuSans-61" transform="translate(4245.517578 0)"/>
     <use xlink:href="#DejaVuSans-6e" transform="translate(4306.796875 0)"/>
     <use xlink:href="#DejaVuSans-64" transform="translate(4370.175781 0)"/>
     <use xlink:href="#DejaVuSans-20" transform="translate(4433.652344 0)"/>
     <use xlink:href="#DejaVuSans-6e" transform="translate(4465.439453 0)"/>
     <use xlink:href="#DejaVuSans-65" transform="translate(4528.818359 0)"/>
     <use xlink:href="#DejaVuSans-75" transform="translate(4590.341797 0)"/>
     <use xlink:href="#DejaVuSans-74" transform="translate(4653.720703 0)"/>
     <use xlink:href="#DejaVuSans-72" transform="translate(4692.929688 0)"/>
     <use xlink:href="#DejaVuSans-61" transform="translate(4734.042969 0)"/>
     <use xlink:href="#DejaVuSans-6c" transform="translate(4795.322266 0)"/>
     <use xlink:href="#DejaVuSans-20" transform="translate(4823.105469 0)"/>
     <use xlink:href="#DejaVuSans-6f" transform="translate(4854.892578 0)"/>
     <use xlink:href="#DejaVuSans-63" transform="translate(4916.074219 0)"/>
     <use xlink:href="#DejaVuSans-63" transform="translate(4971.054688 0)"/>
     <use xlink:href="#DejaVuSans-6c" transform="translate(5026.035156 0)"/>
     <use xlink:href="#DejaVuSans-75" transform="translate(5053.818359 0)"/>
     <use xlink:href="#DejaVuSans-73" transform="translate(5117.197266 0)"/>
     <use xlink:href="#DejaVuSans-69" transform="translate(5169.296875 0)"/>
     <use xlink:href="#DejaVuSans-6f" transform="translate(5197.080078 0)"/>
     <use xlink:href="#DejaVuSans-6e" transform="translate(5258.261719 0)"/>
     <use xlink:href="#DejaVuSans-20" transform="translate(5321.640625 0)"/>
     <use xlink:href="#DejaVuSans-66" transform="translate(5353.427734 0)"/>
     <use xlink:href="#DejaVuSans-65" transform="translate(5388.632812 0)"/>
     <use xlink:href="#DejaVuSans-61" transform="translate(5450.15625 0)"/>
     <use xlink:href="#DejaVuSans-74" transform="translate(5511.435547 0)"/>
     <use xlink:href="#DejaVuSans-75" transform="translate(5550.644531 0)"/>
     <use xlink:href="#DejaVuSans-72" transform="translate(5614.023438 0)"/>
     <use xlink:href="#DejaVuSans-65" transform="translate(5652.886719 0)"/>
     <use xlink:href="#DejaVuSans-73" transform="translate(5714.410156 0)"/>
     <use xlink:href="#DejaVuSans-3b" transform="translate(5766.509766 0)"/>
     <use xlink:href="#DejaVuSans-20" transform="translate(5800.201172 0)"/>
     <use xlink:href="#DejaVuSans-69" transform="translate(5831.988281 0)"/>
     <use xlink:href="#DejaVuSans-6e" transform="translate(5859.771484 0)"/>
     <use xlink:href="#DejaVuSans-66" transform="translate(5923.150391 0)"/>
     <use xlink:href="#DejaVuSans-65" transform="translate(5958.355469 0)"/>
     <use xlink:href="#DejaVuSans-72" transform="translate(6019.878906 0)"/>
     <use xlink:href="#DejaVuSans-65" transform="translate(6058.742188 0)"/>
     <use xlink:href="#DejaVuSans-6e" transform="translate(6120.265625 0)"/>
     <use xlink:href="#DejaVuSans-63" transform="translate(6183.644531 0)"/>
     <use xlink:href="#DejaVuSans-65" transform="translate(6238.625 0)"/>
     <use xlink:href="#DejaVuSans-20" transform="translate(6300.148438 0)"/>
     <use xlink:href="#DejaVuSans-63" transform="translate(6331.935547 0)"/>
     <use xlink:href="#DejaVuSans-6f" transform="translate(6386.916016 0)"/>
     <use xlink:href="#DejaVuSans-6e" transform="translate(6448.097656 0)"/>
     <use xlink:href="#DejaVuSans-74" transform="translate(6511.476562 0)"/>
     <use xlink:href="#DejaVuSans-69" transform="translate(6550.685547 0)"/>
     <use xlink:href="#DejaVuSans-6e" transform="translate(6578.46875 0)"/>
     <use xlink:href="#DejaVuSans-75" transform="translate(6641.847656 0)"/>
     <use xlink:href="#DejaVuSans-65" transform="translate(6705.226562 0)"/>
     <use xlink:href="#DejaVuSans-73" transform="translate(6766.75 0)"/>
     <use xlink:href="#DejaVuSans-20" transform="translate(6818.849609 0)"/>
     <use xlink:href="#DejaVuSans-6f" transform="translate(6850.636719 0)"/>
     <use xlink:href="#DejaVuSans-6e" transform="translate(6911.818359 0)"/>
     <use xlink:href="#DejaVuSans-63" transform="translate(6975.197266 0)"/>
     <use xlink:href="#DejaVuSans-65" transform="translate(7030.177734 0)"/>
     <use xlink:href="#DejaVuSans-20" transform="translate(7091.701172 0)"/>
     <use xlink:href="#DejaVuSans-74" transform="translate(7123.488281 0)"/>
     <use xlink:href="#DejaVuSans-68" transform="translate(7162.697266 0)"/>
     <use xlink:href="#DejaVuSans-65" transform="translate(7226.076172 0)"/>
     <use xlink:href="#DejaVuSans-20" transform="translate(7287.599609 0)"/>
     <use xlink:href="#DejaVuSans-34" transform="translate(7319.386719 0)"/>
     <use xlink:href="#DejaVuSans-38" transform="translate(7383.009766 0)"/>
     <use xlink:href="#DejaVuSans-2d" transform="translate(7446.632812 0)"/>
     <use xlink:href="#DejaVuSans-66" transform="translate(7482.716797 0)"/>
     <use xlink:href="#DejaVuSans-72" transform="translate(7517.921875 0)"/>
     <use xlink:href="#DejaVuSans-61" transform="translate(7559.035156 0)"/>
     <use xlink:href="#DejaVuSans-6d" transform="translate(7620.314453 0)"/>
     <use xlink:href="#DejaVuSans-65" transform="translate(7717.726562 0)"/>
     <use xlink:href="#DejaVuSans-20" transform="translate(7779.25 0)"/>
     <use xlink:href="#DejaVuSans-62" transform="translate(7811.037109 0)"/>
     <use xlink:href="#DejaVuSans-75" transform="translate(7874.513672 0)"/>
     <use xlink:href="#DejaVuSans-66" transform="translate(7937.892578 0)"/>
     <use xlink:href="#DejaVuSans-66" transform="translate(7973.097656 0)"/>
     <use xlink:href="#DejaVuSans-65" transform="translate(8008.302734 0)"/>
     <use xlink:href="#DejaVuSans-72" transform="translate(8069.826172 0)"/>
     <use xlink:href="#DejaVuSans-20" transform="translate(8110.939453 0)"/>
     <use xlink:href="#DejaVuSans-69" transform="translate(8142.726562 0)"/>
     <use xlink:href="#DejaVuSans-73" transform="translate(8170.509766 0)"/>
     <use xlink:href="#DejaVuSans-20" transform="translate(8222.609375 0)"/>
     <use xlink:href="#DejaVuSans-72" transform="translate(8254.396484 0)"/>
     <use xlink:href="#DejaVuSans-65" transform="translate(8293.259766 0)"/>
     <use xlink:href="#DejaVuSans-61" transform="translate(8354.783203 0)"/>
     <use xlink:href="#DejaVuSans-64" transform="translate(8416.0625 0)"/>
     <use xlink:href="#DejaVuSans-79" transform="translate(8479.539062 0)"/>
     <use xlink:href="#DejaVuSans-2e" transform="translate(8524.46875 0)"/>
    </g>
   </g>
  </g>
 </g>
 <defs>
  <clipPath id="p3b8fa05bbe">
   <rect x="7.2" y="7.2" width="1015.56" height="332.64"/>
  </clipPath>
 </defs>
</svg>
